<svg width="24" height="26" viewBox="0 0 24 26" fill="none" xmlns="http://www.w3.org/2000/svg">
<path d="M4 12.3741C4 11.9765 4.28215 11.648 4.64823 11.596L4.75 11.5888L19.75 11.5888C20.1642 11.5888 20.5 11.9404 20.5 12.3741C20.5 12.7716 20.2178 13.1001 19.8518 13.1521L19.75 13.1593L4.75 13.1593C4.33579 13.1593 4 12.8077 4 12.3741Z" fill="#0A66E3" stroke="#0A66E3"/>
<path d="M13.171 6.62195C12.8775 6.31591 12.8765 5.81864 13.1687 5.51128C13.4344 5.23185 13.851 5.20557 14.1451 5.43303L14.2294 5.50888L20.2794 11.817C20.547 12.096 20.5714 12.5339 20.3524 12.8418L20.2794 12.93L14.2294 19.2391C13.9359 19.5452 13.4611 19.5442 13.1688 19.2368C12.9031 18.9574 12.8797 18.5211 13.0982 18.2141L13.171 18.1262L18.687 12.3732L13.171 6.62195Z" fill="#0A66E3" stroke="#0A66E3"/>
</svg>
