<svg width="24" height="25" viewBox="0 0 24 25" fill="none" xmlns="http://www.w3.org/2000/svg">
<path d="M9.29013 21.9009C8.46395 21.8969 7.64681 21.7286 6.88627 21.4058C6.12573 21.083 5.43699 20.6122 4.86012 20.0207C4.28759 19.4779 3.82767 18.8277 3.5067 18.107C3.18573 17.3863 3.01 16.6094 2.98956 15.8208C2.96913 15.0321 3.10439 14.2472 3.38762 13.5108C3.67084 12.7745 4.09646 12.1013 4.64012 11.5296L12.0001 4.09874C12.3932 3.70637 12.8617 3.39773 13.3773 3.19146C13.8929 2.98519 14.445 2.88556 15.0001 2.89859C15.5949 2.90062 16.1832 3.02105 16.7309 3.25285C17.2786 3.48466 17.7747 3.82321 18.1902 4.24876C19.0172 5.04509 19.4967 6.1355 19.5248 7.2833C19.5529 8.4311 19.1272 9.54366 18.3402 10.3795L10.9401 17.8104C10.7031 18.049 10.4211 18.2382 10.1104 18.367C9.79965 18.4958 9.46646 18.5615 9.13013 18.5605C8.76681 18.561 8.40707 18.4886 8.07215 18.3478C7.73723 18.2069 7.43392 18.0004 7.18013 17.7404C6.67286 17.2492 6.3799 16.5776 6.36492 15.8716C6.34994 15.1656 6.61415 14.4822 7.10013 13.9699L13.9301 7.1091C14.1245 6.97999 14.3579 6.92293 14.59 6.9478C14.822 6.97267 15.038 7.0779 15.2006 7.24528C15.3632 7.41265 15.4622 7.63163 15.4803 7.8643C15.4985 8.09696 15.4348 8.32866 15.3001 8.51927L8.47013 15.3801C8.35624 15.5173 8.3008 15.6938 8.31577 15.8715C8.33073 16.0492 8.4149 16.214 8.55013 16.3302C8.69085 16.4719 8.88054 16.5542 9.08013 16.5602C9.15407 16.5613 9.22748 16.5477 9.29613 16.5202C9.36479 16.4928 9.42732 16.452 9.48013 16.4002L16.8702 8.96932C17.285 8.50845 17.5018 7.90283 17.4737 7.28337C17.4456 6.66391 17.1749 6.08039 16.7201 5.65893C16.2977 5.22031 15.7233 4.9603 15.115 4.9324C14.5068 4.90449 13.9109 5.11081 13.4501 5.50891L6.06013 12.8998C5.70077 13.2858 5.42128 13.7391 5.23775 14.2336C5.05422 14.728 4.97026 15.2539 4.9907 15.7809C5.01115 16.3079 5.1356 16.8257 5.35689 17.3045C5.57818 17.7832 5.89194 18.2135 6.28013 18.5705C6.6694 18.9741 7.1352 19.296 7.65029 19.5175C8.16539 19.7391 8.71946 19.8557 9.28013 19.8606C9.76355 19.8646 10.243 19.7729 10.6909 19.591C11.1388 19.4091 11.5463 19.1404 11.8901 18.8005L19.2802 11.3696C19.3727 11.2764 19.4828 11.2023 19.604 11.1515C19.7252 11.1008 19.8552 11.0745 19.9866 11.074C20.118 11.0736 20.2482 11.099 20.3698 11.1488C20.4914 11.1987 20.6019 11.272 20.6952 11.3646C20.7884 11.4572 20.8625 11.5673 20.9132 11.6885C20.9639 11.8097 20.9903 11.9398 20.9907 12.0712C20.9912 12.2026 20.9658 12.3328 20.9159 12.4544C20.8661 12.576 20.7927 12.6865 20.7002 12.7798L13.3101 20.2107C12.7854 20.7447 12.1599 21.1691 11.4698 21.4593C10.7796 21.7495 10.0388 21.8996 9.29013 21.9009Z" fill="#535674"/>
</svg>
