<svg width="32" height="32" viewBox="0 0 32 32" fill="none" xmlns="http://www.w3.org/2000/svg">
<path d="M30.9883 8.81062C30.9532 8.48795 30.7527 8.20236 30.453 8.0625L16.3905 1.5C16.1392 1.38275 15.8489 1.38275 15.5976 1.5L1.53514 8.0625C1.23549 8.20236 1.03498 8.48789 0.999883 8.81062C0.999121 8.81736 0.994141 8.90713 0.994141 8.91205V24.8496C0.994141 25.2329 1.22752 25.5776 1.58348 25.72L15.646 31.345C15.7577 31.3897 15.876 31.4121 15.9941 31.4121C16.1123 31.4121 16.2306 31.3897 16.3423 31.345L30.4048 25.72C30.7608 25.5776 30.9941 25.2329 30.9941 24.8496V8.91205C30.9941 8.90713 30.989 8.8173 30.9883 8.81062ZM15.9941 3.38408L27.6979 8.84584L27.6224 8.81062L21.9561 5.91334L15.9941 3.38408ZM15.9941 3.38408L21.9561 5.91334L27.6224 8.81062L15.9941 13.5273L4.29039 8.84584L15.9941 3.38408ZM2.86914 10.2967L15.0566 15.1717V29.0898L2.86914 24.2148V10.2967ZM16.9316 29.0899V15.1717L29.1191 10.2967V24.2148L16.9316 29.0899Z" fill="white"/>
<path d="M15.9941 3.38408L27.6979 8.84584L27.6224 8.81062M15.9941 3.38408L4.29039 8.84584L15.9941 13.5273L27.6224 8.81062M15.9941 3.38408L21.9561 5.91334L27.6224 8.81062M30.9883 8.81062C30.9532 8.48795 30.7527 8.20236 30.453 8.0625L16.3905 1.5C16.1392 1.38275 15.8489 1.38275 15.5976 1.5L1.53514 8.0625C1.23549 8.20236 1.03498 8.48789 0.999883 8.81062C0.999121 8.81736 0.994141 8.90713 0.994141 8.91205V24.8496C0.994141 25.2329 1.22752 25.5776 1.58348 25.72L15.646 31.345C15.7577 31.3897 15.876 31.4121 15.9941 31.4121C16.1123 31.4121 16.2306 31.3897 16.3423 31.345L30.4048 25.72C30.7608 25.5776 30.9941 25.2329 30.9941 24.8496V8.91205C30.9941 8.90713 30.989 8.8173 30.9883 8.81062ZM2.86914 10.2967L15.0566 15.1717V29.0898L2.86914 24.2148V10.2967ZM16.9316 29.0899V15.1717L29.1191 10.2967V24.2148L16.9316 29.0899Z" stroke="white"/>
</svg>
