<svg width="65" height="70" viewBox="0 0 65 70" fill="none" xmlns="http://www.w3.org/2000/svg">
          <mask id="mask0" mask-type="alpha" maskUnits="userSpaceOnUse" x="0" y="0" width="65" height="70">
            <path
              d="M60.1331 15.4785C48.8509 -3.78743 22.1566 -5.27393 8.6833 12.1741C4.09597 18.1151 0.881008 25.2221 0 32.8945C0 32.8945 1.36299 31.9229 2.18038 31.4914C1.91967 33.2716 1.78931 35.0705 1.79034 36.8721C1.79034 53.8775 14.4521 69.4548 31.1433 69.1072C21.3696 59.2014 15.1559 43.3012 20.3528 29.4078C21.7135 25.7706 23.426 23.3598 26.3543 20.99C30.5175 17.6205 36.983 17.0898 41.4387 20.1303C43.5648 21.5653 45.0944 23.8089 45.714 26.4021C46.3337 28.9953 45.9967 31.7419 44.772 34.0799C45.2318 34.0133 48.8288 45.6379 45.9656 42.1583C43.0341 38.5971 38.7759 36.5134 34.7758 34.6525C33.4123 34.018 32.3462 33.1625 31.1429 32.2926C31.1057 33.0666 30.9338 33.8429 30.8928 34.62C30.4799 42.659 32.6229 49.5297 39.8229 53.2097C48.8803 57.8392 58.6206 52.4655 62.4728 43.1856C66.3249 33.9055 64.9222 23.6572 60.1331 15.4785ZM29.8879 14.2554C29.8798 14.2634 29.8711 14.2708 29.8622 14.2776C29.6387 14.4776 29.3804 14.6286 29.1019 14.7225C28.8233 14.8163 28.5301 14.8509 28.239 14.8243C27.9479 14.7977 27.6646 14.7106 27.4052 14.5676C27.1458 14.4247 26.9155 14.229 26.7273 13.9915C26.7195 13.981 26.711 13.9712 26.7019 13.9619C26.4268 13.6143 26.2506 13.1907 26.1938 12.7406C26.137 12.2905 26.2021 11.8326 26.3813 11.4203C26.5606 11.0081 26.8467 10.6586 27.2061 10.4126C27.5655 10.1666 27.9833 10.0343 28.4109 10.0312C28.7399 10.0346 29.0645 10.113 29.3625 10.261C29.6606 10.4091 29.9252 10.6233 30.1386 10.8893C30.5246 11.3715 30.7148 11.9966 30.6677 12.6275C30.6206 13.2583 30.3401 13.8438 29.8874 14.2554H29.8879ZM37.5879 12.1791C37.58 12.1887 37.5715 12.1978 37.5623 12.2062C37.1099 12.6097 36.5252 12.8061 35.9365 12.752C35.3478 12.6979 34.8033 12.3978 34.4229 11.9176C34.4147 11.9096 34.4078 11.9006 34.402 11.8905C34.1272 11.5432 33.951 11.12 33.894 10.6704C33.8371 10.2208 33.9018 9.76326 34.0805 9.35118C34.2592 8.9391 34.5444 8.58948 34.9031 8.34311C35.2619 8.09674 35.6792 7.96379 36.1064 7.95977C36.4355 7.96255 36.7602 8.04066 37.0583 8.18875C37.3565 8.33684 37.6211 8.55144 37.834 8.81791C38.2208 9.29846 38.4121 9.92235 38.366 10.5526C38.3198 11.1828 38.0399 11.7677 37.5879 12.1791ZM45.0536 15.5575C45.0466 15.5648 45.0373 15.5723 45.0303 15.5796C44.8065 15.7801 44.5477 15.9319 44.2686 16.0261C43.9896 16.1204 43.6958 16.1553 43.404 16.1291C43.1123 16.1027 42.8284 16.0156 42.5682 15.8726C42.3082 15.7297 42.0772 15.5338 41.8885 15.296C41.8829 15.2874 41.8767 15.2791 41.8699 15.2714C41.5937 14.9243 41.4164 14.5009 41.3586 14.0507C41.3008 13.6006 41.365 13.1421 41.5435 12.7293C41.7221 12.3164 42.0077 11.966 42.3669 11.7193C42.7262 11.4724 43.1441 11.3393 43.5719 11.3357C43.9012 11.3376 44.2262 11.4154 44.5246 11.5635C44.8228 11.7117 45.0872 11.9267 45.2996 12.1939C45.6864 12.6749 45.8777 13.2991 45.8315 13.9297C45.7854 14.5603 45.5056 15.1457 45.0536 15.5575Z"
              fill="white"
            />
          </mask>
          <g mask="url(#mask0)">
            <path
              d="M60.1331 15.4785C48.8509 -3.78743 22.1566 -5.27393 8.6833 12.1741C4.09597 18.1151 0.881008 25.2221 0 32.8945C0 32.8945 1.36299 31.9229 2.18038 31.4914C1.91967 33.2716 1.78931 35.0705 1.79034 36.8721C1.79034 53.8775 14.4521 69.4548 31.1433 69.1072C21.3696 59.2014 15.1559 43.3012 20.3528 29.4078C21.7135 25.7706 23.426 23.3598 26.3543 20.99C30.5175 17.6205 36.983 17.0898 41.4387 20.1303C43.5648 21.5653 45.0944 23.8089 45.714 26.4021C46.3337 28.9953 45.9967 31.7419 44.772 34.0799C45.2318 34.0133 48.8288 45.6379 45.9656 42.1583C43.0341 38.5971 38.7759 36.5134 34.7758 34.6525C33.4123 34.018 32.3462 33.1625 31.1429 32.2926C31.1057 33.0666 30.9338 33.8429 30.8928 34.62C30.4799 42.659 32.6229 49.5297 39.8229 53.2097C48.8803 57.8392 58.6206 52.4655 62.4728 43.1856C66.3249 33.9055 64.9222 23.6572 60.1331 15.4785ZM29.8879 14.2554C29.8798 14.2634 29.8711 14.2708 29.8622 14.2776C29.6387 14.4776 29.3804 14.6286 29.1019 14.7225C28.8233 14.8163 28.5301 14.8509 28.239 14.8243C27.9479 14.7977 27.6646 14.7106 27.4052 14.5676C27.1458 14.4247 26.9155 14.229 26.7273 13.9915C26.7195 13.981 26.711 13.9712 26.7019 13.9619C26.4268 13.6143 26.2506 13.1907 26.1938 12.7406C26.137 12.2905 26.2021 11.8326 26.3813 11.4203C26.5606 11.0081 26.8467 10.6586 27.2061 10.4126C27.5655 10.1666 27.9833 10.0343 28.4109 10.0312C28.7399 10.0346 29.0645 10.113 29.3625 10.261C29.6606 10.4091 29.9252 10.6233 30.1386 10.8893C30.5246 11.3715 30.7148 11.9966 30.6677 12.6275C30.6206 13.2583 30.3401 13.8438 29.8874 14.2554H29.8879ZM37.5879 12.1791C37.58 12.1887 37.5715 12.1978 37.5623 12.2062C37.1099 12.6097 36.5252 12.8061 35.9365 12.752C35.3478 12.6979 34.8033 12.3978 34.4229 11.9176C34.4147 11.9096 34.4078 11.9006 34.402 11.8905C34.1272 11.5432 33.951 11.12 33.894 10.6704C33.8371 10.2208 33.9018 9.76326 34.0805 9.35118C34.2592 8.9391 34.5444 8.58948 34.9031 8.34311C35.2619 8.09674 35.6792 7.96379 36.1064 7.95977C36.4355 7.96255 36.7602 8.04066 37.0583 8.18875C37.3565 8.33684 37.6211 8.55144 37.834 8.81791C38.2208 9.29846 38.4121 9.92235 38.366 10.5526C38.3198 11.1828 38.0399 11.7677 37.5879 12.1791ZM45.0536 15.5575C45.0466 15.5648 45.0373 15.5723 45.0303 15.5796C44.8065 15.7801 44.5477 15.9319 44.2686 16.0261C43.9896 16.1204 43.6958 16.1553 43.404 16.1291C43.1123 16.1027 42.8284 16.0156 42.5682 15.8726C42.3082 15.7297 42.0772 15.5338 41.8885 15.296C41.8829 15.2874 41.8767 15.2791 41.8699 15.2714C41.5937 14.9243 41.4164 14.5009 41.3586 14.0507C41.3008 13.6006 41.365 13.1421 41.5435 12.7293C41.7221 12.3164 42.0077 11.966 42.3669 11.7193C42.7262 11.4724 43.1441 11.3393 43.5719 11.3357C43.9012 11.3376 44.2262 11.4154 44.5246 11.5635C44.8228 11.7117 45.0872 11.9267 45.2996 12.1939C45.6864 12.6749 45.8777 13.2991 45.8315 13.9297C45.7854 14.5603 45.5056 15.1457 45.0536 15.5575Z"
              fill="#0A66E3"
            />
          </g>
          <path
            d="M40.0957 29.6693C40.2039 29.7061 41.022 29.9612 41.4674 30.0888C41.8015 30.1841 41.71 29.8856 41.7191 29.6536C41.7445 28.9776 41.9792 28.0647 41.6482 27.4325C41.125 26.4871 39.97 26.4574 39.0827 26.0424C38.9174 25.9663 38.7545 25.9916 38.7124 26.1693C38.5241 26.9629 38.4159 27.9931 38.9297 28.7209C39.1855 29.1721 39.6017 29.5107 40.0957 29.6693Z"
            fill="#0A66E3"
          />
        </svg>