<svg width="32" height="29" viewBox="0 0 32 29" fill="none" xmlns="http://www.w3.org/2000/svg">
<path d="M29.189 1H2.81108C1.81246 1 1 1.81246 1 2.81108V21.0232C1 22.0218 1.81246 22.8343 2.81108 22.8343H11.8498V24.1521C11.8498 25.3601 10.8669 26.343 9.6589 26.343H7.66688C7.28497 26.343 6.9753 26.6526 6.9753 27.0345C6.9753 27.4165 7.28497 27.7261 7.66688 27.7261H24.3331C24.715 27.7261 25.0247 27.4165 25.0247 27.0345C25.0247 26.6526 24.715 26.343 24.3331 26.343H22.341C21.133 26.343 20.1502 25.3601 20.1502 24.1521V22.8343H29.1889C30.1875 22.8343 31 22.0219 31 21.0233V2.81108C31.0001 1.81246 30.1877 1 29.189 1ZM12.4797 26.3431C12.9512 25.7374 13.2331 24.9774 13.2331 24.1522V22.8344H18.7671V24.1522C18.7671 24.9774 19.049 25.7375 19.5204 26.3431H12.4797ZM29.6169 21.0233C29.6169 21.2592 29.425 21.4512 29.189 21.4512H2.81108C2.57512 21.4512 2.38311 21.2593 2.38311 21.0233V17.3885H29.6169V21.0233ZM29.6169 16.0053H2.38317V2.81108C2.38317 2.57512 2.57512 2.38311 2.81114 2.38311H29.189C29.4249 2.38311 29.617 2.57506 29.617 2.81108V16.0053H29.6169Z" fill="white" stroke="white"/>
<path d="M16.2466 19.4201C16.2466 19.5561 16.1363 19.6664 16.0003 19.6664C15.8642 19.6664 15.7539 19.5561 15.7539 19.4201C15.7539 19.284 15.8642 19.1737 16.0003 19.1737C16.1363 19.1737 16.2466 19.284 16.2466 19.4201Z" fill="white" stroke="white"/>
<path d="M16.5612 6.11835L11.6738 11.0058C11.599 11.0806 11.5989 11.2019 11.6738 11.2768C11.7114 11.3144 11.7595 11.3329 11.8093 11.3329C11.8592 11.3329 11.9072 11.3143 11.9448 11.2768L16.8323 6.38923C16.9071 6.31448 16.9072 6.19316 16.8324 6.11827C16.8323 6.11824 16.8323 6.11822 16.8323 6.11819M16.5612 6.11835L16.2078 5.76468C16.478 5.49462 16.9158 5.49462 17.1859 5.76468L16.8323 6.11819M16.5612 6.11835C16.6362 6.04338 16.7575 6.04346 16.8323 6.11819M16.5612 6.11835L16.8323 6.11819" fill="white" stroke="white"/>
<path d="M19.7292 8.95057L19.7292 8.95061C19.804 9.0254 19.804 9.14674 19.7292 9.22154C19.7292 9.22154 19.7292 9.22155 19.7292 9.22155L17.7821 11.1685L17.7821 11.1685C17.7446 11.206 17.6964 11.2246 17.6466 11.2246C17.5968 11.2246 17.5487 11.206 17.5112 11.1685C17.4364 11.0937 17.4363 10.9724 17.5112 10.8975L19.4581 8.95074C19.4581 8.95069 19.4582 8.95065 19.4582 8.9506C19.4582 8.95058 19.4582 8.95057 19.4582 8.95056C19.5334 8.87565 19.6546 8.87598 19.7292 8.95057Z" fill="white" stroke="white"/>
</svg>
