<svg width="32" height="32" viewBox="0 0 32 32" fill="none" xmlns="http://www.w3.org/2000/svg">
<path d="M23.277 14.7546L21.9425 8.08224L4.7442 1.00001L1 4.74468L8.08223 21.943L14.7541 23.277L13.1206 24.9105L19.2114 31.0014L31 19.2128L24.9091 13.122L23.277 14.7546ZM9.45054 20.2812L3.23817 5.19259L3.54281 4.88703L11.2032 12.5475C10.8689 13.1127 10.6649 13.7618 10.6649 14.4648C10.6649 16.5597 12.3685 18.2632 14.4634 18.2632C16.5583 18.2632 18.2618 16.5597 18.2618 14.4648C18.2618 12.3699 16.5583 10.6663 14.4634 10.6663C13.7609 10.6663 13.1113 10.8703 12.5461 11.2047L4.88563 3.54422L5.19026 3.23958L20.2788 9.45195L21.6624 16.3686L16.3663 21.6648L9.45054 20.2812ZM14.4634 12.5655C15.5108 12.5655 16.3626 13.4173 16.3626 14.4648C16.3626 15.5122 15.5108 16.364 14.4634 16.364C13.4159 16.364 12.5641 15.5122 12.5641 14.4648C12.5641 13.4173 13.4159 12.5655 14.4634 12.5655ZM19.2114 28.3158L15.8062 24.9105L24.9091 15.8076L28.3144 19.2128L19.2114 28.3158Z" fill="white" stroke="white" stroke-width="0.5" stroke-linejoin="round"/>
</svg>
