<svg width="245" height="30" viewBox="0 0 245 30" fill="none" xmlns="http://www.w3.org/2000/svg">
<path fill-rule="evenodd" clip-rule="evenodd" d="M92.3962 4.122C92.2582 4.10187 92.1173 4.07742 91.9692 4.05298L91.8024 4.02854C91.5589 3.99687 91.315 3.96908 91.0706 3.94515C90.9022 3.93012 90.7334 3.91862 90.5645 3.91065C90.2735 3.89192 89.982 3.88233 89.6904 3.8819C89.5624 3.8819 89.4877 3.88621 89.3611 3.88621C89.0002 3.8953 88.6397 3.91544 88.28 3.94659C88.0887 3.96672 87.9061 3.98541 87.725 4.00985L87.5726 4.02998L87.4001 4.05442L87.1945 4.08893L86.9242 4.13349L86.5561 4.20682C85.5109 4.42578 84.4964 4.77198 83.5354 5.23768C83.2893 5.35581 83.048 5.48387 82.8122 5.62156C82.5914 5.74596 82.3751 5.87832 82.1638 6.01837C82.0459 6.09889 81.928 6.17509 81.8145 6.25847C81.7167 6.33324 81.6189 6.40225 81.5255 6.47414C81.3291 6.62223 81.1392 6.7786 80.9561 6.94283C80.7887 7.08931 80.6261 7.24131 80.4687 7.3986C80.3347 7.52781 80.2057 7.66209 80.082 7.80116C79.8124 8.09687 79.559 8.40692 79.3229 8.72995C79.2352 8.85647 79.146 8.98442 79.0583 9.11669C78.9979 9.20583 78.9447 9.29353 78.8858 9.38698C78.5502 9.93475 78.2657 10.5123 78.0361 11.1123C77.7295 11.9045 77.52 12.731 77.4121 13.5737C77.3398 14.0731 77.3057 14.5773 77.31 15.0819C77.31 15.2472 77.31 15.4154 77.3187 15.5822C77.3345 15.7533 77.3445 15.9215 77.3632 16.0955L77.3776 16.2134C77.4035 16.4132 77.4322 16.6087 77.4711 16.8L77.5156 17.0271C77.5969 17.3921 77.6957 17.7529 77.8118 18.1083C77.8952 18.3498 77.9786 18.5827 78.0763 18.8099C78.2287 19.1751 78.3912 19.523 78.5738 19.8465C78.6816 20.0435 78.7837 20.2318 78.8973 20.4087C78.9907 20.5553 79.0842 20.6919 79.1733 20.8242C79.2955 21.0068 79.4235 21.175 79.5529 21.3346C79.6852 21.5057 79.8232 21.6681 79.9583 21.8292C80.1266 22.0175 80.2933 22.1943 80.4572 22.3568L80.5449 22.4459C80.683 22.5725 80.8296 22.7162 80.9978 22.8586C81.1114 22.9563 81.2336 23.0584 81.3616 23.1591C81.4838 23.254 81.606 23.356 81.7383 23.4481C81.8964 23.5602 82.0632 23.6781 82.2458 23.7902C82.8701 24.1918 83.5316 24.5322 84.2212 24.8067C84.4081 24.8887 84.6051 24.9562 84.8064 25.0224C85.3793 25.2243 85.9673 25.3811 86.5647 25.4911C86.8897 25.5529 87.2232 25.609 87.5712 25.6449C87.9162 25.6895 88.2699 25.7211 88.6437 25.7398C88.8205 25.7484 89.0017 25.7542 89.1886 25.7599C89.272 25.7599 89.3597 25.7657 89.4431 25.7657C90.1059 25.7657 90.7155 25.7355 91.2863 25.6895L91.3999 25.6809C91.6241 25.6607 91.8427 25.6363 92.0526 25.6133C92.3775 25.5687 92.6866 25.5241 92.9814 25.4666C93.4242 25.3876 93.8636 25.2902 94.2983 25.1748C94.4752 25.1245 94.652 25.077 94.8245 25.0253C95.0273 24.9634 95.217 24.8987 95.4039 24.834L95.5808 24.7751L95.9402 24.6428C96.1271 24.5695 96.3586 24.4746 96.6188 24.3682C96.7712 24.2978 96.9423 24.2244 97.1149 24.1468C97.2658 24.0735 97.4297 24.0001 97.5907 23.9168C97.6598 23.8866 97.7288 23.8521 97.7978 23.819V19.7775C97.7532 19.8077 97.7 19.8393 97.6554 19.8666L97.3751 20.0291C97.1104 20.1957 96.8399 20.353 96.5642 20.5007C95.8236 20.9063 95.0532 21.2548 94.2595 21.543C93.3811 21.855 92.5702 22.0563 91.857 22.1857C91.7737 22.2001 91.6903 22.2145 91.6069 22.2245C91.1607 22.2906 90.7116 22.3348 90.2612 22.3568C90.1189 22.3624 89.9765 22.3652 89.8342 22.3654C89.548 22.3654 89.2533 22.3626 88.9543 22.3367C88.5954 22.3129 88.238 22.2716 87.8831 22.213C87.2872 22.1157 86.7015 21.9636 86.1334 21.7587C86.0487 21.7274 85.9648 21.6938 85.8818 21.6581C85.8301 21.6408 85.7697 21.6164 85.715 21.5962C85.623 21.5517 85.5296 21.5114 85.4361 21.4697C85.2386 21.3753 85.044 21.2751 84.8524 21.1692L84.5677 20.9953C84.4743 20.9363 84.3751 20.8745 84.2816 20.8098C84.1637 20.725 84.0458 20.6416 83.9337 20.5539C83.8265 20.4674 83.7215 20.3782 83.6188 20.2865L83.4808 20.1686L83.4175 20.1096L83.3787 20.0708L83.3298 20.0234C83.1545 19.8493 82.9871 19.6675 82.8281 19.4785C82.7447 19.3778 82.667 19.2757 82.5865 19.1722C82.5132 19.0687 82.4442 18.9724 82.3809 18.8717C82.1575 18.5321 81.9668 18.172 81.8116 17.7963C81.6652 17.4571 81.5483 17.106 81.4622 16.7468C81.3686 16.374 81.3027 15.9949 81.2652 15.6124C81.2552 15.4887 81.2451 15.3709 81.2408 15.2616C81.2351 15.1227 81.2318 14.9837 81.2307 14.8446C81.2307 14.7699 81.2351 14.6879 81.2351 14.5902C81.262 13.9233 81.3726 13.2626 81.5643 12.6233C81.6445 12.3737 81.7366 12.128 81.8403 11.8872C81.8993 11.7492 81.9683 11.6112 82.0373 11.4731C82.0919 11.3696 82.1509 11.2661 82.2098 11.164C82.3421 10.9325 82.4945 10.7011 82.667 10.4754C82.726 10.3977 82.7892 10.3143 82.8583 10.2353C82.9417 10.1317 83.0308 10.0253 83.1285 9.92182C83.1731 9.8715 83.222 9.81687 83.2723 9.76799C84.1843 8.8543 85.2983 8.16776 86.5245 7.76378C86.6754 7.70915 86.8293 7.66602 86.9759 7.62145C87.1183 7.58119 87.2606 7.54812 87.4029 7.51649C87.8491 7.41353 88.3023 7.34336 88.7587 7.30658C89.0535 7.28214 89.3439 7.26776 89.6243 7.26776H89.9046C90.2461 7.27173 90.5872 7.2914 90.9268 7.32671C91.1813 7.34684 91.4286 7.38135 91.663 7.41442C91.87 7.44461 92.0713 7.48342 92.2582 7.51793C92.5472 7.57832 92.8146 7.64157 93.0489 7.7034C93.2071 7.74365 93.348 7.78822 93.4774 7.82273C93.9615 7.96429 94.4372 8.13325 94.9022 8.32881C95.1567 8.43089 95.4039 8.54447 95.6383 8.64798C95.8353 8.73569 96.0207 8.82915 96.1933 8.91254C96.3399 8.98155 96.4736 9.05631 96.6001 9.11957C96.8216 9.23459 97.0085 9.33666 97.1609 9.42005L97.5735 9.64577V5.67619L96.9006 5.41596C96.679 5.33072 96.4561 5.24875 96.2321 5.1701L95.7849 5.01339L95.3968 4.88112C95.2397 4.82992 95.082 4.78054 94.9237 4.73303C94.8058 4.69852 94.688 4.65971 94.5657 4.6252L94.4565 4.59502C94.34 4.56195 94.2207 4.52744 94.0985 4.49869C93.9562 4.45987 93.8081 4.41817 93.6614 4.3851C93.5669 4.35871 93.4715 4.33569 93.3753 4.31609C93.2186 4.28303 93.0604 4.24276 92.898 4.21257C92.7298 4.18525 92.563 4.15507 92.3962 4.122ZM72.5598 0H104.045V29.6274H72.5598V0ZM48.3612 16.3413V22.1656H52.1396L52.3409 22.1541C52.4688 22.1541 52.6514 22.1455 52.8671 22.1239C53.3681 22.0868 53.8628 21.9898 54.3408 21.8349C54.8166 21.6782 55.2796 21.4395 55.6333 21.0858C55.7656 20.9449 55.8791 20.8026 55.9711 20.6617C56.1981 20.2961 56.3318 19.8805 56.3608 19.4511C56.3665 19.3361 56.3665 19.2657 56.3665 19.2657C56.3665 19.2657 56.3708 19.2182 56.3665 19.1219C56.3608 19.0098 56.3507 18.7927 56.286 18.5626C56.2074 18.2357 56.0583 17.93 55.8489 17.6669C55.8001 17.6137 55.7555 17.5605 55.7009 17.5044C55.5958 17.3982 55.4823 17.3006 55.3615 17.2126C55.1428 17.0548 54.907 16.9221 54.6585 16.8172C54.2935 16.6647 53.9125 16.5537 53.5227 16.4865C53.3001 16.443 53.0756 16.4103 52.8498 16.3888C52.7104 16.3758 52.5666 16.3614 52.4142 16.3557C52.2816 16.3465 52.1488 16.3417 52.0159 16.3413H48.3612ZM48.3612 7.48773V13.0101H50.1886C50.1886 13.0101 50.3108 13.0101 50.4747 13C50.6012 13 50.755 12.99 50.8873 12.9856C51.2669 12.9555 51.7873 12.9023 52.3078 12.7542C52.4099 12.7264 52.5111 12.6952 52.6112 12.6607C53.0195 12.5126 53.412 12.3013 53.7125 12.0022C53.9583 11.7664 54.115 11.5005 54.2214 11.2402C54.3277 10.9752 54.3927 10.6954 54.4141 10.4107C54.4342 10.2194 54.4342 10.0958 54.4342 10.0958C54.4342 10.0958 54.4342 10.0066 54.4299 9.86575C54.4121 9.51529 54.3267 9.17159 54.1783 8.85359C54.0766 8.66106 53.9457 8.48548 53.7901 8.33313C53.5791 8.13119 53.3331 7.96943 53.064 7.8558C52.5479 7.63007 51.957 7.53518 51.4624 7.50642C51.2695 7.49338 51.0763 7.48667 50.883 7.4863L48.3612 7.48773Z" fill="white"/>
<path fill-rule="evenodd" clip-rule="evenodd" d="M44.5382 4.15506V25.4954H52.5708C52.5708 25.4954 56.4872 25.6018 58.6496 23.4394C60.4122 21.6753 60.2857 19.6424 60.2857 19.6424C60.2857 19.6424 60.4122 17.5145 58.7818 15.8827C57.3915 14.4967 55.6174 14.1243 55.6174 14.1243C55.6174 14.1243 56.4182 13.7505 57.0379 13.1323C57.3225 12.8476 58.3505 11.9174 58.3505 9.6731C58.3505 7.40866 56.8423 6.10607 56.8423 6.10607C56.8423 6.10607 55.1904 4.15506 51.4666 4.15506H44.5382ZM36.2784 0H67.7648V29.6274H36.2784V0ZM12.0798 16.3413V22.1656H15.8625L16.0595 22.1541C16.1874 22.1541 16.3686 22.1455 16.5857 22.1239C17.0881 22.0869 17.5843 21.9899 18.0637 21.8349C18.5367 21.6782 18.9982 21.4395 19.3519 21.0858C19.7873 20.649 20.0463 20.067 20.0794 19.4511C20.0895 19.3361 20.0895 19.2657 20.0895 19.2657C20.0895 19.2657 20.0895 19.2182 20.0837 19.1219C20.0837 19.0098 20.0693 18.7927 20.0118 18.5626C19.9279 18.2366 19.7771 17.9316 19.569 17.6669C19.4248 17.4975 19.2618 17.3451 19.083 17.2126C18.8665 17.0545 18.6326 16.9218 18.3857 16.8172C18.0189 16.6656 17.6366 16.5547 17.2456 16.4865C17.0231 16.443 16.7985 16.4103 16.5728 16.3888C16.4304 16.3773 16.2881 16.3629 16.1357 16.3586C16.0031 16.3494 15.8703 16.3446 15.7374 16.3442C14.3932 16.3413 12.0798 16.3413 12.0798 16.3413ZM12.0798 7.48773V13.0101H13.9129C13.9129 13.0101 14.0352 13.0101 14.1976 13C14.3198 13 14.4722 12.99 14.6059 12.9856C14.9855 12.9555 15.506 12.9023 16.025 12.7542C16.1299 12.7283 16.232 12.6952 16.3298 12.6607C16.7381 12.5126 17.1306 12.3013 17.4368 12.0022C17.6569 11.7866 17.8289 11.527 17.9415 11.2402C18.0752 10.9268 18.1183 10.622 18.1385 10.4107C18.1543 10.2194 18.1543 10.0958 18.1543 10.0958C18.1543 10.0958 18.16 10.0066 18.1485 9.86575C18.1348 9.51503 18.0502 9.17073 17.8998 8.85359C17.7986 8.66074 17.6676 8.48509 17.5116 8.33313C17.3009 8.13222 17.056 7.97057 16.7884 7.8558C16.2737 7.63007 15.6828 7.53518 15.1868 7.50642C14.9939 7.49336 14.8007 7.48665 14.6074 7.4863L12.0798 7.48773Z" fill="white"/>
<path fill-rule="evenodd" clip-rule="evenodd" d="M8.25692 4.15506V25.4954H16.291C16.291 25.4954 20.2117 25.6018 22.3726 23.4394C24.1324 21.6753 24.0044 19.6424 24.0044 19.6424C24.0044 19.6424 24.131 17.5145 22.5006 15.8827C21.1146 14.4967 19.3419 14.1243 19.3419 14.1243C19.3419 14.1243 20.1427 13.7505 20.7566 13.1323C21.047 12.8476 22.0693 11.9174 22.0693 9.6731C22.0693 7.40866 20.5639 6.10607 20.5639 6.10607C20.5639 6.10607 18.9149 4.15506 15.1839 4.15506H8.25692ZM0 0H31.4864V29.6274H0V0ZM120.776 4.01272H118.615L109.432 25.5155H112.565L115.263 19.2168H124.353L127.202 25.5155H130.337L120.776 4.01272ZM119.651 8.71557L123.096 16.4535H116.454L119.651 8.71557ZM152.412 4.14213H149.561L142.445 12.9166L135.36 4.14213H132.476V25.5155H135.548V8.87372H135.61L142.195 17.1479H142.695L149.274 8.87372H149.339V25.5155H152.412V4.14213ZM170.599 4.14213H158.469V25.5155H170.879V22.7579H161.54V16.1084H170.284V13.3537H161.54V6.89827H170.599V4.14213ZM176.544 4.14213V25.517H179.616V16.2392H180.905C182.472 16.2392 183.754 16.7424 186.574 21.1275L189.399 25.517H193.064C191.59 23.4782 191.061 22.7594 190.152 21.2857C188.52 18.623 187.33 16.6461 185.385 15.3608C187.676 14.4507 188.959 12.6046 188.959 10.1274C188.959 6.42669 186.263 4.14213 181.936 4.14213H176.544ZM179.616 6.7703H181.59C184.569 6.7703 185.763 7.99526 185.794 9.99946C185.823 11.788 184.884 13.4788 181.59 13.4788H179.616V6.7703ZM196.219 25.5155H199.292V4.14213H196.219V25.5155ZM222.616 5.61149C219.702 4.38653 217.475 3.85602 215.284 3.85602C208.478 3.85602 203.561 8.62211 203.561 15.1437C203.561 19.6251 207.067 25.7973 215.093 25.7973C218.448 25.7973 220.737 25.0137 222.838 23.9182V20.5625C220.422 22.1296 217.791 22.975 215.377 22.975C210.233 22.975 206.725 19.6524 206.725 14.8576C206.725 10.1547 210.361 6.67686 215.251 6.67686C217.728 6.67686 219.982 7.36553 222.616 8.90247V5.61149ZM234.969 4.01272H232.804L223.621 25.5155H226.758L229.457 19.2168H238.538L241.393 25.5155H244.53L234.969 4.01272ZM233.842 8.71557L237.287 16.4535H230.643L233.842 8.71557Z" fill="white"/>
</svg>
