<svg width="146" height="36" viewBox="0 0 146 36" fill="none" xmlns="http://www.w3.org/2000/svg">
<path d="M44.608 14.4846C46.2789 14.4846 47.6335 13.1168 47.6335 11.4297C47.6335 9.74257 46.2789 8.37482 44.608 8.37482C42.9369 8.37482 41.5824 9.74257 41.5824 11.4297C41.5824 13.1168 42.9369 14.4846 44.608 14.4846ZM144.458 24.922C143.998 24.5952 143.643 24.5412 143.348 25.1757C138.266 36.2849 129.703 30.7413 130.554 31.2292C132.453 30.352 137.449 26.3078 136.694 20.7239C136.235 17.3113 133.334 15.7975 130.254 16.3396C124.877 17.2856 122.899 23.1389 123.906 28.3214C124.083 29.2112 124.398 29.9454 124.712 30.6643C118.636 35.6514 116.224 26.1998 115.95 25.0705C115.939 25.0102 120.641 21.054 121.949 11.6269C123.319 1.74679 120.197 -0.0519904 117.004 0.00407394C111.096 0.108013 109.499 12.5688 111.644 22.9539C111.465 23.0011 110.628 23.4686 109.285 23.5208C108.318 20.4507 104.188 17.7595 103.107 18.7963C100.401 21.3909 103.763 26.4626 106.128 26.8606C104.707 35.6947 95.8211 33.5066 97.4754 22.4389C100.369 17.0149 102.57 8.94932 102.177 4.08023C102.038 2.35626 100.775 0.0465946 97.9195 0.160771C92.4273 0.380303 91.8302 12.8445 92.4743 21.6909C92.4421 21.4731 92.1366 22.7657 89.886 23.4086C89.3535 20.4255 84.5953 17.4314 83.4751 18.871C81.3785 21.5652 85.012 26.3688 86.7333 26.7041C85.3125 35.538 76.4264 33.3499 78.0807 22.2822C80.9743 16.8582 83.1751 8.79263 82.7822 3.92354C82.6432 2.19956 81.3807 -0.110102 78.5247 0.00407394C73.0325 0.223764 72.4354 12.6878 73.0794 21.5342C73.047 21.3131 72.7343 22.6481 70.3917 23.2805C70.3132 19.4105 65.5377 17.6361 64.3906 18.871C62.3461 21.0718 64.8588 25.5881 67.1834 26.7041C65.7626 35.538 56.8765 33.3499 58.5307 22.2822C61.4244 16.8582 63.6251 8.79263 63.2323 3.92354C63.0933 2.19956 61.8308 -0.110102 58.9748 0.00407394C53.4825 0.223764 53.0407 13.3145 53.6847 22.1608C51.8757 29.9845 45.809 39.7549 46.5971 20.1827C46.6749 18.8099 46.7599 18.2883 46.0819 17.7744C45.5736 17.3747 44.4181 17.5668 43.7867 17.5829C43.019 17.6139 42.8265 18.0675 42.6569 18.7527C42.2615 20.5224 42.1907 22.2378 42.1342 24.5785C42.0971 25.6735 42.01 26.1844 41.5925 27.6773C41.175 29.1703 38.7952 31.8985 37.4918 31.4426C35.684 30.8147 36.2767 25.6633 36.6158 22.1236C36.8982 19.3263 35.9944 18.0703 33.6781 17.6135C32.3222 17.3281 31.4983 17.372 30.0863 16.9227C28.751 16.4978 28.4488 13.948 25.601 14.7978C24.0429 15.2629 25.0444 18.5947 24.6701 21.0643C22.8294 33.2112 18.9993 33.5447 17.2225 27.6439C25.2249 7.86095 19.5374 0.0617131 16.2087 0.0617131C12.7411 0.0617131 8.77732 2.47248 10.4557 17.8984C9.63962 17.658 9.38875 17.5286 8.4954 17.5286C3.44265 17.5286 0 21.6517 0 26.7378C0 31.8239 3.44265 35.947 8.4954 35.947C11.4783 35.947 13.5722 34.5778 15.1584 32.4595C16.1931 33.9554 17.4532 35.9701 19.7576 35.8794C26.626 35.6095 28.6238 21.3876 28.8594 20.5943C29.5938 20.7085 30.2885 20.9247 30.9664 21.0389C32.0963 21.2102 32.1782 21.6616 32.1528 22.8087C31.8535 32.4811 33.6217 35.8678 37.6325 35.8678C39.8673 35.8678 41.8593 33.6516 43.2315 32.0667C44.2563 34.2019 45.8894 35.8026 48.0802 35.8678C53.3891 36.0008 55.4215 27.46 55.2363 28.584C55.0909 29.4659 56.9586 35.8196 62.4238 35.8427C69.1938 35.8712 70.4521 28.3564 70.6023 27.0976C70.6211 26.8471 70.6292 26.8734 70.6023 27.0976C70.6006 27.1209 70.5988 27.1458 70.5969 27.174C72.7462 26.7705 73.8553 25.6074 73.8553 25.6074C73.8553 25.6074 75.581 35.9596 81.9737 35.8427C88.6118 35.7213 89.8636 28.9285 90.0282 27.6038C90.0498 27.2894 90.0627 27.3263 90.0282 27.6038C90.0273 27.6168 90.0265 27.6283 90.0256 27.6427C92.5786 26.705 93.25 25.764 93.25 25.764C93.25 25.764 94.6218 35.9104 101.368 35.9992C107.381 36.0785 109.609 29.864 109.622 27.2627C110.636 27.2735 112.512 26.6556 112.468 26.6201C112.468 26.6201 114.67 35.4914 120.82 35.947C123.708 36.1608 125.874 34.3071 127.108 33.4612C130.01 35.8334 139.673 38.8631 145.774 28.4217C146.635 26.9233 144.783 25.153 144.458 24.922ZM8.25154 32.5025C5.30362 32.5025 3.41332 29.7511 3.41332 26.7844C3.41332 23.8177 5.14838 21.0663 8.09631 21.0663C9.42307 21.0663 10.1607 21.2137 11.194 22.1208C11.3815 22.8659 11.9123 24.585 12.1708 25.3656C12.5169 26.41 12.9286 27.2992 13.3439 28.2669C12.7506 30.749 10.8063 32.5025 8.25154 32.5025ZM15.4352 22.2081C15.3127 22.0109 15.3381 22.132 15.201 21.9457C14.6607 20.462 13.6193 17.15 13.4987 13.388C13.3623 9.13279 14.065 4.14496 16.1364 4.14496C17.54 4.14496 19.0316 14.2537 15.4352 22.2081ZM56.943 17.7744C56.6103 15.2492 56.593 3.99173 59.2704 4.30166C60.7485 4.90608 58.3331 15.529 56.943 17.7744ZM76.4929 17.7744C76.1603 15.2492 76.143 3.99173 78.8203 4.30166C80.2984 4.90608 77.883 15.529 76.4929 17.7744ZM95.8877 17.9311C95.555 15.4059 95.5378 4.14842 98.215 4.45835C99.6933 5.06278 97.2777 15.6857 95.8877 17.9311ZM117.3 3.64274C119.747 3.38667 119.646 14.1767 114.733 20.9885C114.1 18.5266 113.128 4.48827 117.3 3.64274ZM127.588 26.8606C126.802 22.8519 128.833 20.2189 130.928 19.9302C131.659 19.8121 132.72 20.2908 132.932 21.1857C133.28 22.8722 132.881 25.3736 128.194 28.5477C128.201 28.5748 127.763 27.7532 127.588 26.8606Z" fill="white"/>
</svg>
