<svg width="162" height="82" viewBox="0 0 162 82" fill="none" xmlns="http://www.w3.org/2000/svg">
<path d="M0 41V0H161.172V82H0V41ZM34.7359 58.9029C35.4831 58.6432 36.4895 57.9913 37.0793 57.3838L37.5551 56.8946L37.3269 56.3501L37.0987 55.8056L36.5649 56.316C35.5295 57.306 34.1421 57.749 33.021 57.4468C31.2127 56.9595 30.2289 54.7308 30.2289 51.1224C30.2289 47.5057 31.2372 45.806 33.3904 45.7944C34.6837 45.788 35.2587 46.3736 35.6707 48.119C35.8293 48.7927 35.886 48.8718 36.1555 48.7998C36.3231 48.7548 36.6061 48.7168 36.7834 48.7162C37.0993 48.7143 37.1058 48.6815 37.1058 47.0114V45.3084L36.0665 45.0667C34.4696 44.6951 32.6258 44.6341 31.5215 44.9163C28.5069 45.6864 26.7985 48.2501 26.7927 52.0128C26.7875 55.1647 27.9963 57.5214 30.1644 58.5853C31.5685 59.2745 33.3156 59.3953 34.7359 58.9029ZM49.2788 58.9061C50.3606 58.6052 51.0614 58.2253 51.8266 57.5259C53.6279 55.8789 54.4357 53.2464 53.967 50.5464C53.3404 46.9303 50.7435 44.7144 47.1339 44.7144C42.9963 44.7144 40.395 47.525 40.4027 51.9871C40.4085 55.3524 41.8894 57.7618 44.5764 58.7762C45.969 59.3021 47.6832 59.3497 49.2788 58.9061ZM46.203 57.7972C44.6983 56.8972 43.9305 54.6324 43.9208 51.0716C43.9156 48.7606 44.1638 47.6516 44.8814 46.7825C46.2958 45.0719 48.7186 45.7976 49.8113 48.2611C50.3767 49.5358 50.6043 50.7843 50.6101 52.6428C50.6185 55.3788 49.9996 57.1267 48.7766 57.8178C47.9933 58.26 46.9624 58.2517 46.203 57.7972ZM84.4544 58.9762C85.9739 58.6502 87.6598 57.4295 88.4514 56.082C89.307 54.6273 89.6912 52.4364 89.403 50.6628C88.8344 47.1734 86.4594 44.9478 83.0934 44.753C80.7745 44.6186 78.9951 45.2371 77.6652 46.6404C76.4209 47.9518 75.7923 49.7743 75.7917 52.0713C75.7898 57.0817 79.4999 60.0388 84.4544 58.9762ZM81.6912 57.848C80.1556 57.0701 79.3194 54.6633 79.3123 51.0003C79.3059 48.371 79.7256 47.0557 80.8312 46.2399C81.4134 45.8092 82.6106 45.7514 83.3326 46.1191C85.0288 46.9818 85.9771 49.2742 86.0016 52.5714C86.021 55.2039 85.4665 56.9447 84.3557 57.7335C83.693 58.2041 82.4958 58.2555 81.6912 57.848ZM136.384 58.8155C137.418 58.4355 138.541 57.3285 138.869 56.3662C139.141 55.5716 139.185 54.2184 138.958 53.6167C138.556 52.547 137.577 51.6367 134.777 49.7236C134.167 49.307 133.538 48.7573 133.381 48.5021C133.036 47.9467 133.006 47.0441 133.316 46.6025C133.775 45.9494 134.899 45.6112 135.803 45.8542C136.467 46.0323 136.75 46.3833 137.107 47.4755C137.273 47.9814 137.423 48.2109 137.584 48.2019L138.322 48.1666L138.823 48.1428V46.8674C138.823 45.9674 138.765 45.5334 138.623 45.3926C138.514 45.2834 137.804 45.0776 137.048 44.9349C132.992 44.1744 130.654 45.6324 130.659 48.9181C130.661 50.7463 131.299 51.6271 133.906 53.4058C136.107 54.9075 136.844 55.9657 136.365 56.9396C136.011 57.6615 135.473 57.9283 134.375 57.9283C133.505 57.9283 133.341 57.8846 133.02 57.5638C132.818 57.3626 132.499 56.8162 132.308 56.3488C131.944 55.4508 131.668 55.2881 130.855 55.4919C130.526 55.5735 130.514 55.625 130.514 56.9139C130.514 57.8145 130.572 58.296 130.693 58.3886C130.791 58.4645 131.291 58.6419 131.803 58.782C133.791 59.3272 134.97 59.3355 136.384 58.8155ZM149.939 58.6914C150.718 58.3841 150.79 58.3185 150.832 57.8737C150.872 57.4571 150.843 57.4038 150.62 57.4893C150.476 57.5439 149.972 57.621 149.498 57.6609C148.395 57.7535 147.751 57.4487 147.348 56.6426C147.082 56.1135 147.058 55.733 147.014 51.4644L146.968 46.8571H150.105L150.188 46.4456C150.233 46.2187 150.313 45.8651 150.365 45.6594L150.459 45.2859H146.989V41.5715H145.582L145.488 42.1276C145.345 42.9704 144.65 44.3229 144.14 44.7504C143.681 45.1361 142.89 45.4261 142.297 45.428C142.007 45.428 141.975 45.4974 141.975 46.1429V46.8571H143.667L143.728 51.4644C143.795 56.4433 143.864 56.9447 144.609 57.92C144.811 58.1835 145.316 58.5718 145.732 58.7833C146.432 59.1382 146.585 59.162 147.79 59.0964C148.682 59.0482 149.359 58.9202 149.939 58.6914ZM22.2173 58.9125L22.7298 58.8277L22.9813 56.8779C23.1192 55.8056 23.2675 54.752 23.3101 54.536C23.3861 54.1528 23.3713 54.1432 22.7253 54.1432C22.0935 54.1432 22.0626 54.1625 22.0626 54.5463C22.0626 55.2611 21.6274 56.2614 21.1233 56.7024C20.4567 57.2861 19.8294 57.4269 17.8882 57.4275C15.3765 57.4288 15.5544 57.7535 15.4996 53.0651L15.4545 49.2478L17.3621 49.3141C19.9596 49.4041 20.2916 49.5982 20.554 51.1783C20.6352 51.6675 20.6829 51.7145 21.102 51.7145H21.561L21.5765 48.5709L21.592 45.4286H21.1265C20.6675 45.4286 20.6584 45.4421 20.5037 46.3158C20.416 46.814 20.2304 47.3193 20.0808 47.4684C19.5999 47.948 18.0416 48.1248 16.2249 47.9075L15.4726 47.8175V40.5706L17.2274 40.5822C18.1925 40.5879 19.2388 40.6702 19.5522 40.7641C20.2652 40.9782 20.712 41.6056 20.846 42.5802L20.9453 43.3002L21.4682 43.2571L21.991 43.214V39.0708H9.16943V39.4308C9.16943 39.7587 9.24808 39.8062 10.0359 39.9554C11.8217 40.2942 11.7475 39.9039 11.7475 48.9997C11.7475 57.2745 11.7411 57.3491 10.9352 57.7573C10.7122 57.8698 10.2235 58.0067 9.84957 58.0614C9.25195 58.1475 9.16878 58.2022 9.16878 58.5062V58.8527L13.6462 58.8926C16.1089 58.9145 18.9287 58.9466 19.9138 58.964C20.8989 58.982 21.9349 58.9588 22.2173 58.9125ZM64.4671 58.6785C64.4632 58.3725 64.2743 58.2067 63.6805 57.9868C62.8186 57.668 62.767 57.3928 62.758 53.0163C62.749 48.8313 62.8044 48.4642 63.5877 47.552C64.1873 46.8539 64.7933 46.571 65.6894 46.571C67.6912 46.571 68.1424 47.9956 68.0154 53.9047C67.9361 57.5818 67.8742 57.803 66.855 58.0607C66.4405 58.1655 66.3315 58.2626 66.3315 58.5249V58.8572H73.5146L73.4689 58.539C73.4321 58.2857 73.2948 58.199 72.7958 58.1147C71.9261 57.9669 71.5193 57.6647 71.4097 57.0836C71.3594 56.8136 71.3053 54.7083 71.2898 52.4036C71.266 48.9232 71.2208 48.0933 71.0216 47.4986C70.6793 46.4759 70.043 45.6884 69.1681 45.2049C68.4777 44.8237 68.2856 44.7858 67.0478 44.7858C65.3677 44.7858 64.6953 45.0564 63.462 46.2296L62.6065 47.0435L62.6052 46.3428C62.6052 45.9577 62.5652 45.4106 62.5182 45.1278L62.4331 44.6129L61.5228 44.8025C60.8091 44.9523 57.9757 45.2846 57.4135 45.2853C57.3542 45.2853 57.3058 45.446 57.3058 45.6427C57.3058 45.9449 57.3729 46.0001 57.7404 46.0001C58.5578 46.0001 59.1335 46.3511 59.3005 46.9529C59.521 47.7416 59.492 56.631 59.2683 57.2816C59.0697 57.857 58.6042 58.1379 57.8435 58.1405C57.3664 58.1424 57.3058 58.1829 57.3058 58.4998V58.8572H60.8877C63.6586 58.8572 64.469 58.8167 64.4671 58.6785ZM99.8296 58.5467C99.7967 58.325 99.6098 58.179 99.1733 58.0344C98.8374 57.9232 98.4828 57.693 98.3855 57.5233C98.2591 57.3035 98.1947 56.0544 98.1618 53.1918C98.1179 49.3179 98.1282 49.1431 98.43 48.443C99.0141 47.0891 100.1 46.4321 101.454 46.6134C102.22 46.7163 102.677 47.1727 102.976 48.1363C103.185 48.8081 103.222 49.5571 103.222 53.0715C103.222 56.1033 103.174 57.297 103.045 57.5233C102.947 57.693 102.592 57.9232 102.257 58.0344C101.82 58.179 101.633 58.325 101.601 58.5467L101.555 58.8572H108.165V58.5062C108.165 58.2202 108.075 58.1385 107.673 58.0633C106.663 57.8743 106.665 57.8872 106.618 53.1776L106.576 48.9566L106.955 48.1852C107.436 47.2036 108.174 46.6893 109.224 46.6025C110.259 46.517 110.82 46.8224 111.221 47.6889C111.518 48.3292 111.531 48.5452 111.531 52.8774C111.531 57.1074 111.514 57.4172 111.261 57.6962C111.112 57.8602 110.774 58.035 110.509 58.0845C110.122 58.1565 110.027 58.2414 110.027 58.5152V58.8572H117.15L117.085 58.5165C117.033 58.2446 116.907 58.1617 116.455 58.1012C115.663 57.9952 115.223 57.6622 115.049 57.0367C114.962 56.7217 114.899 54.813 114.899 52.4184C114.899 47.9628 114.834 47.4864 114.069 46.2856C113.795 45.8549 113.402 45.5013 112.882 45.2139C112.179 44.8269 111.979 44.7858 110.815 44.7858C109.689 44.7858 109.421 44.8372 108.701 45.1901C108.246 45.4126 107.498 45.959 107.037 46.4039L106.199 47.2139L105.691 46.4064C105.345 45.8561 104.963 45.4698 104.489 45.1921C103.858 44.8224 103.672 44.7858 102.434 44.7858C100.79 44.7858 100.136 45.0519 98.8406 46.2483L97.9929 47.0306L97.9909 46.1223C97.9896 45.6228 97.9522 45.0783 97.9078 44.9124C97.8291 44.6193 97.8008 44.6167 96.913 44.8019C96.1961 44.9516 93.3627 45.2846 92.7999 45.2853C92.7406 45.2853 92.6922 45.446 92.6922 45.6427C92.6922 45.9404 92.7606 46.0001 93.1003 46.0001C93.863 46.0001 94.4297 46.2946 94.6411 46.8005C94.939 47.5096 94.9312 56.6503 94.6334 57.3626C94.4052 57.9058 93.9655 58.1424 93.1841 58.1424C92.7548 58.1424 92.6922 58.188 92.6922 58.4998V58.8572H99.8754L99.8296 58.5467ZM127.306 58.631C127.258 58.5069 127.219 58.3545 127.219 58.2922C127.219 58.2305 126.922 58.1462 126.558 58.1057C125.548 57.992 125.333 57.6879 125.201 56.1875C125.14 55.4951 125.085 52.6068 125.08 49.7705L125.07 44.6122L124.031 44.7922C123.46 44.8912 122.253 45.0461 121.349 45.1361C120.447 45.2261 119.683 45.3239 119.654 45.3534C119.485 45.5206 119.828 46.0001 120.115 46.0001C120.714 46.0001 121.351 46.3119 121.555 46.7041C121.822 47.2196 121.982 52.6235 121.812 55.3968C121.668 57.7393 121.558 57.9618 120.471 58.1032C119.848 58.1848 119.633 58.3314 119.628 58.6785C119.626 58.8167 120.497 58.8572 123.509 58.8572C126.992 58.8572 127.384 58.8335 127.306 58.631ZM124.224 41.7785C125.658 41.0392 125.487 38.822 123.955 38.2897C121.852 37.5595 120.483 40.5603 122.391 41.72C122.666 41.8855 122.979 41.9777 123.3 41.988C123.621 41.9982 123.939 41.9261 124.224 41.7785ZM98.9238 34.4024C99.6768 34.2185 100.619 33.665 101.396 32.9515C102.215 32.198 102.334 31.964 102.126 31.5095L101.96 31.1457L101.263 31.7943C99.5666 33.377 97.432 33.5911 96.0814 32.3138C95.2613 31.5385 94.5631 29.5791 94.5573 28.0356L94.5547 27.4287H102.463L102.359 26.3963C102.228 25.0996 101.99 24.4131 101.341 23.4681C100.368 22.0512 98.9941 21.4771 96.8718 21.5993C94.2066 21.7536 92.2377 23.5909 91.6195 26.5023C91.35 27.7713 91.35 28.9728 91.6195 30.1113C91.9051 31.3199 92.2983 32.0463 93.1577 32.9528C94.5773 34.45 96.6242 34.9649 98.9238 34.4024ZM94.4838 25.7727C94.7159 24.3944 95.0157 23.6494 95.5534 23.1132C96.0498 22.6182 96.1639 22.5713 96.8801 22.5713C97.4533 22.5713 97.795 22.6581 98.1502 22.8927C98.702 23.2566 99.3557 24.4613 99.4963 25.3729L99.5865 25.9598L99.0405 26.0523C98.7401 26.1038 97.5706 26.1873 96.4424 26.2388L94.3897 26.3313L94.4838 25.7727ZM71.3459 33.964C71.3459 33.6059 71.2982 33.5712 70.8082 33.5693C70.0681 33.566 69.6001 33.2993 69.3042 32.7123C69.0759 32.2578 69.054 31.5809 69.0534 24.9524V17.6901L70.6651 17.7917C71.5516 17.8476 72.5134 17.9871 72.8029 18.1002C73.4263 18.3458 73.7809 18.9784 73.7809 19.8424C73.7809 20.4171 73.7912 20.4286 74.2825 20.4286H74.784V16.4481L67.2624 16.4468L59.7415 16.4455L59.7402 17.4722C59.7396 18.0379 59.6976 18.9379 59.6467 19.4734L59.5545 20.4479L60.1135 20.4023C60.6705 20.3573 60.6724 20.3541 60.7491 19.6424C60.7917 19.2497 60.9026 18.7913 60.996 18.6235C61.2636 18.1427 62.1178 17.8997 63.9313 17.7884L65.6146 17.6856V25.0636C65.6146 33.3353 65.6365 33.1508 64.6476 33.4208C64.3517 33.5011 63.9494 33.584 63.7521 33.6046C63.4897 33.6323 63.3833 33.7377 63.3524 33.9993L63.3105 34.3568H71.3453L71.3459 33.964ZM81.6609 34.0321C81.6609 33.7846 81.5578 33.6863 81.2264 33.6207C80.9879 33.5731 80.6655 33.3732 80.5108 33.1765C80.2465 32.8415 80.2278 32.5831 80.2278 29.1188C80.2278 26.1031 80.2691 25.3214 80.4496 24.8901C80.897 23.8229 81.7261 23.2527 82.8317 23.2527C84.1675 23.2527 84.5904 23.8396 84.8302 26.0279C85.0172 27.7347 84.925 32.4533 84.6936 33.0286C84.5814 33.307 84.3777 33.4574 83.9593 33.5699C83.5041 33.692 83.3797 33.793 83.3797 34.0411V34.3568H89.8266V34.0353C89.8266 33.8251 89.7402 33.7139 89.5758 33.7139C89.4385 33.7133 89.0936 33.6483 88.8112 33.5699C87.9589 33.334 87.9215 33.1418 87.8313 28.4283C87.7526 24.3848 87.7358 24.1868 87.4148 23.5362C87.0125 22.7224 86.166 21.9644 85.4059 21.7369C85.1004 21.6462 84.4389 21.5716 83.9361 21.5716C82.8594 21.5716 81.6384 22.0859 80.7655 22.9088L80.2278 23.4141V15.8515L79.9054 15.9222C78.9874 16.1222 77.8618 16.2739 76.6085 16.3658C75.7388 16.4294 75.2147 16.5278 75.216 16.6268C75.2205 16.9437 75.4397 17.1006 76.0019 17.188C76.6981 17.296 77.0314 17.6702 77.1481 18.4705C77.1965 18.8009 77.2158 22.1605 77.192 25.9347C77.1417 33.7557 77.1868 33.458 76.0225 33.6323C75.441 33.719 75.107 33.9987 75.2714 34.2622C75.3036 34.3143 76.7542 34.3568 78.4949 34.3568H81.6603L81.6609 34.0321Z" fill="#343647"/>
</svg>
