<svg width="245" height="44" viewBox="0 0 245 44" fill="none" xmlns="http://www.w3.org/2000/svg">
<path fill-rule="evenodd" clip-rule="evenodd" d="M21.7193 0H21.9427C22.368 0.0478512 22.7242 0.435981 22.7242 0.866645C22.7295 2.72222 22.7242 4.57248 22.7242 6.42274C22.7295 6.89063 22.3201 7.31066 21.8523 7.31066C21.3791 7.34256 20.9378 6.93316 20.9325 6.45996C20.9271 4.58312 20.9271 2.71159 20.9325 0.834744C20.9431 0.414715 21.2993 0.0425347 21.7193 0Z" fill="white"/>
<path fill-rule="evenodd" clip-rule="evenodd" d="M9.63908 2.72739C10.0272 2.637 10.4685 2.84436 10.6386 3.21122C11.4362 4.87539 12.2284 6.53424 13.0259 8.19842C13.1588 8.47489 13.1376 8.82049 12.9674 9.0757C12.776 9.37876 12.3985 9.53826 12.0529 9.47446C11.7818 9.42129 11.5319 9.24583 11.4096 9.00126C10.6121 7.33177 9.81454 5.66228 9.01701 3.99811C8.87877 3.72164 8.90004 3.38136 9.07018 3.12615C9.19246 2.91879 9.40514 2.78056 9.63908 2.72739Z" fill="white"/>
<path fill-rule="evenodd" clip-rule="evenodd" d="M33.1929 2.73298C33.6129 2.62132 34.0808 2.87122 34.235 3.2753C34.3201 3.50392 34.3147 3.76976 34.2084 3.99307C33.4428 5.58812 32.6772 7.18849 31.9115 8.78354C31.8265 8.96432 31.7467 9.15572 31.5819 9.28333C31.2576 9.5598 30.7259 9.54917 30.4122 9.25674C30.1198 9.00685 30.0294 8.5496 30.1995 8.20401C30.997 6.53452 31.7946 4.86503 32.5921 3.19554C32.7091 2.9616 32.9377 2.78615 33.1929 2.73298Z" fill="white"/>
<path fill-rule="evenodd" clip-rule="evenodd" d="M20.6507 9.88921C22.2776 9.78287 23.9152 9.89984 25.4996 10.2561C28.9343 11.0111 32.0978 12.8932 34.4213 15.5304C34.937 16.0886 35.389 16.7054 35.8196 17.3328C37.5582 19.9221 38.5525 23.0005 38.6482 26.1215C38.7545 29.1574 38.0155 32.2253 36.5268 34.873C35.8675 36.0534 35.0646 37.154 34.1448 38.1429C33.7461 38.5948 33.2888 38.9989 32.8422 39.403C30.6091 41.3383 27.8656 42.6782 24.9626 43.2205C21.714 43.8372 18.2847 43.481 15.2488 42.1731C13.3666 41.3755 11.6386 40.2271 10.1659 38.8128C9.5757 38.2333 9.00148 37.6272 8.50702 36.9626C7.16718 35.2293 6.16229 33.2355 5.58807 31.1193C4.82777 28.3333 4.79587 25.3506 5.50832 22.5486C6.19951 19.7945 7.61911 17.2264 9.56507 15.1582C9.9213 14.7541 10.3307 14.3979 10.7348 14.031C12.92 12.1063 15.6156 10.7612 18.4761 10.1869C19.1939 10.0381 19.9223 9.94237 20.6507 9.88921ZM15.9293 12.4147C15.6316 12.5476 15.3179 12.6699 15.0361 12.8294C17.2639 12.7869 19.4757 13.3505 21.5173 14.2277C22.0862 13.1963 22.7242 12.1914 23.5377 11.3354C20.9644 11.0536 18.3219 11.4151 15.9293 12.4147ZM25.5262 11.6916C25.5262 11.7129 25.5315 11.7554 25.5315 11.7767C25.3242 11.7448 25.1221 11.8139 24.9467 11.9202C24.617 12.1276 24.3618 12.4253 24.1226 12.7284C23.6866 13.3026 23.3251 13.9353 22.9901 14.5733C22.9422 14.6637 22.8838 14.7541 22.8519 14.8551C23.0858 14.9668 23.3038 15.0944 23.5324 15.2114C24.5798 15.7962 25.5847 16.4608 26.5364 17.1892C26.8129 17.3966 27.0787 17.6146 27.3446 17.8272C28.2484 18.5876 29.1098 19.3957 29.9126 20.257C30.657 19.9965 31.5449 20.2092 32.0766 20.794C32.3956 21.129 32.587 21.5756 32.6242 22.0435C32.6402 22.3093 32.6189 22.5805 32.5232 22.8357L32.5285 22.8463C32.4647 22.9899 32.4115 23.1441 32.3158 23.277C32.6933 23.8353 33.0442 24.4042 33.3739 24.9837C33.4909 25.1751 33.5759 25.3878 33.7035 25.5686C34.0544 24.7657 34.3575 23.9416 34.5755 23.0962C34.6552 22.7932 34.7244 22.4901 34.7828 22.1817C35.0061 20.9429 35.07 19.635 34.6818 18.4227C34.5702 18.0931 34.4372 17.7528 34.2139 17.4763C33.9268 17.1095 33.6504 16.732 33.3154 16.4023C33.2994 16.3651 33.2729 16.3279 33.241 16.296C32.2627 15.2326 31.1514 14.2969 29.9233 13.5472C28.9609 12.9411 27.9241 12.4572 26.8554 12.0851C26.4141 11.9309 25.9728 11.8033 25.5262 11.6916ZM12.9572 14.5414C12.2713 14.7647 11.628 15.121 11.0857 15.6048C10.8783 15.8175 10.655 16.0195 10.4689 16.2588C10.3413 16.3545 10.2509 16.4874 10.1446 16.6044C9.27796 17.6093 8.5336 18.7205 7.95407 19.9168C6.82158 22.2083 6.2899 24.7923 6.40687 27.3444C6.42282 27.8495 6.46004 28.3599 6.55042 28.8597C6.53447 29.0405 6.66739 29.184 6.78968 29.2957C7.09806 29.5456 7.47023 29.6679 7.84241 29.7795C8.17206 29.8752 8.51234 29.939 8.85261 29.9975C9.79369 30.1464 10.7454 30.1995 11.6918 30.2314L11.7131 30.2155V30.1889C11.7237 30.1995 11.7397 30.2102 11.7503 30.2208C11.9842 30.2421 12.2288 30.2368 12.4681 30.2368C13.8558 30.2314 15.2435 30.1676 16.6258 30.04C16.897 28.4928 17.2213 26.9616 17.5669 25.4303C17.1628 25.1698 16.8438 24.7923 16.6418 24.3563C16.5673 24.1915 16.5089 24.0214 16.4716 23.8459C16.2856 23.0271 16.5301 22.1286 17.1203 21.5278C17.5616 21.0599 18.189 20.7675 18.8376 20.7462C19.3108 19.2522 19.8425 17.7794 20.4752 16.3492C20.6081 16.0514 20.7411 15.759 20.8846 15.4613C19.7043 14.9402 18.4655 14.5521 17.1947 14.3341C15.7911 14.1055 14.3183 14.0895 12.9572 14.5414ZM22.2457 16.1152C21.5173 17.7528 20.8953 19.4329 20.3317 21.129C20.9431 21.5225 21.3791 22.1764 21.4907 22.8942C21.512 23.0537 21.5226 23.2238 21.5226 23.3887C21.4961 24.0639 21.193 24.7232 20.6932 25.1751C20.2307 25.6005 19.6033 25.8504 18.9759 25.845C18.6462 27.1902 18.3538 28.5407 18.1092 29.9018C18.6409 29.8433 19.1779 29.7795 19.7096 29.7157C19.7787 29.2 20.0765 28.7161 20.5071 28.429C20.9537 28.1206 21.5333 28.0196 22.0543 28.1632C22.586 28.3014 23.0379 28.6842 23.2666 29.1787C23.8036 29.083 24.3459 28.9926 24.8829 28.881C24.8829 28.8703 24.8882 28.8491 24.8935 28.8384L24.8829 28.8863C25.1009 28.8437 25.3189 28.7959 25.5369 28.7534C27.972 28.2536 30.3858 27.6475 32.7305 26.8127C32.2733 25.8929 31.7469 25.005 31.1674 24.1543C30.6144 24.3191 29.9871 24.2394 29.4979 23.9257C29.0672 23.6545 28.7429 23.2185 28.61 22.7241C28.5568 22.5327 28.5356 22.3306 28.5462 22.1339C28.5462 21.8042 28.6472 21.4799 28.8014 21.1928C28.291 20.6505 27.7699 20.1294 27.217 19.6297C26.9724 19.4064 26.7278 19.1884 26.4726 18.9757C25.17 17.8804 23.7557 16.9021 22.2457 16.1152ZM36.1865 22.4263C36.128 22.7719 36.0536 23.1122 35.9791 23.4578H35.9738C35.7771 24.25 35.5113 25.0262 35.2029 25.7812C35.5272 25.6324 35.8356 25.4516 36.1386 25.2655C36.4257 25.0741 36.7182 24.8774 36.9362 24.6009C37.0266 24.4839 37.1063 24.3297 37.0638 24.1756C36.9734 23.6386 36.8564 23.1016 36.7075 22.5699C36.5959 22.1605 36.4683 21.7564 36.3141 21.3576C36.2716 21.7139 36.245 22.0701 36.1865 22.4263ZM34.6074 27.5677C35.3358 29.3914 35.793 31.3427 35.7665 33.3152C36.8351 31.0874 37.3509 28.5992 37.2552 26.1268C36.447 26.733 35.5272 27.1636 34.6074 27.5677ZM32.1244 28.4662C29.8329 29.2053 27.4828 29.7636 25.1221 30.2474C24.8882 30.2899 24.6596 30.3378 24.4256 30.3856C24.0694 30.4494 23.7079 30.5185 23.3463 30.577C23.2028 30.9811 22.9263 31.3373 22.5647 31.5606C22.1128 31.8478 21.5439 31.9222 21.0335 31.7733C20.6241 31.651 20.2679 31.3852 20.0233 31.0396C19.3055 31.1247 18.5877 31.1991 17.87 31.2682C17.652 32.6081 17.4712 33.9532 17.3489 35.309C17.333 35.543 17.3117 35.7716 17.3011 36.0055C17.2479 36.7818 17.216 37.5634 17.2373 38.3396C18.1145 38.2014 18.9759 37.9993 19.8213 37.7388C20.1349 37.6431 20.4433 37.5421 20.7517 37.4304C21.0973 37.3028 21.4429 37.1805 21.7779 37.0317C22.1553 36.8828 22.5275 36.7127 22.8944 36.5372C24.08 35.9736 25.2125 35.3037 26.2918 34.5487C26.2387 34.3733 26.1855 34.1925 26.1696 34.0117C26.0685 33.1876 26.4779 32.3369 27.1798 31.9009C27.8444 31.4596 28.7482 31.4384 29.4447 31.8265C30.439 30.795 31.3428 29.6679 32.1244 28.4662ZM33.5759 28.8331C32.6614 30.2793 31.5662 31.5979 30.3699 32.8154C30.6463 33.3896 30.657 34.0861 30.3911 34.6657C30.1838 35.1389 29.801 35.5376 29.3331 35.7556C28.6366 36.1012 27.7593 36.0374 27.116 35.5908C25.6964 36.6223 24.1704 37.5155 22.5647 38.2333C21.9799 38.4938 21.3844 38.7277 20.7783 38.9351C19.6671 39.3179 18.5186 39.6103 17.3542 39.7805C17.4127 40.1792 17.4978 40.5727 17.6573 40.9449C17.7743 41.2107 17.9391 41.4712 18.1996 41.6201C18.1996 41.6361 18.1943 41.6733 18.1943 41.6892C18.6835 41.8115 19.1779 41.9019 19.6777 41.971C22.1128 42.3166 24.6277 42.072 26.9458 41.2479C27.5413 41.0299 28.1368 40.8013 28.6951 40.4983C28.9237 40.4079 29.1364 40.275 29.349 40.158C30.4868 39.52 31.5449 38.749 32.4753 37.8398C32.8103 37.5315 33.1453 37.2071 33.3898 36.819C33.8418 36.1544 34.1182 35.3835 34.2671 34.5912C34.5702 32.9164 34.3096 31.1832 33.8258 29.5668C33.7461 29.3223 33.6823 29.067 33.5759 28.8331ZM6.96514 30.8695C7.09274 31.3108 7.23098 31.7521 7.40112 32.1774C7.79456 33.2248 8.31561 34.2191 8.92705 35.1548C9.14504 35.4738 9.3524 35.7982 9.6076 36.0906L9.60229 36.0746C9.84155 36.4309 10.134 36.7499 10.4158 37.0689C10.5646 37.2231 10.6922 37.3932 10.873 37.5102C11.511 37.9568 12.266 38.2173 13.0316 38.3609C13.9515 38.5417 14.8925 38.5629 15.823 38.5044C15.7539 37.2869 15.8283 36.0746 15.9293 34.8677C15.9559 34.6444 15.9878 34.4211 15.9931 34.1925L16.0091 34.2084C16.0941 33.262 16.243 32.3263 16.3866 31.3905C15.4083 31.4596 14.43 31.5075 13.4464 31.5341C13.2124 31.5287 12.9785 31.5447 12.7445 31.5394C11.3781 31.5447 10.0064 31.4968 8.65057 31.2842C8.27839 31.2204 7.91153 31.1513 7.54467 31.0502C7.34795 30.9971 7.15654 30.9386 6.96514 30.8695ZM13.7973 39.8549C14.5788 40.3494 15.4189 40.7535 16.2802 41.0937C16.142 40.7109 16.0463 40.3175 15.9719 39.9187C15.2488 39.9613 14.515 39.9453 13.7973 39.8549Z" fill="white"/>
<path fill-rule="evenodd" clip-rule="evenodd" d="M0.515734 10.7296C0.786893 10.602 1.12185 10.6232 1.37174 10.7827C2.82856 11.6919 4.28537 12.5958 5.7475 13.4996C5.94423 13.6325 6.17817 13.7283 6.31641 13.9356C6.5344 14.2334 6.53971 14.6693 6.32704 14.9724C6.07715 15.3499 5.52951 15.4775 5.14138 15.2436C3.62077 14.3025 2.10015 13.3561 0.579536 12.4097C0.435982 12.3246 0.28711 12.2395 0.186089 12.1066C0.0850691 11.979 0.0212674 11.8195 0 11.66V11.4367C0.0372182 11.1336 0.239258 10.8572 0.515734 10.7296Z" fill="white"/>
<path fill-rule="evenodd" clip-rule="evenodd" d="M42.3594 10.687C42.6519 10.5966 42.9868 10.671 43.2101 10.8731C43.5292 11.1389 43.6089 11.628 43.4069 11.9843C43.2899 12.2182 43.0506 12.3458 42.8326 12.4734C41.3546 13.3932 39.8765 14.3077 38.3984 15.2275C38.1485 15.3817 37.8189 15.403 37.553 15.2807C37.2234 15.1372 37.0054 14.7756 37.032 14.4141C37.0426 14.1163 37.2181 13.8292 37.4786 13.6803C38.9833 12.7446 40.4879 11.8088 41.9979 10.8731C42.1149 10.8039 42.2265 10.7242 42.3594 10.687Z" fill="white"/>
<path fill-rule="evenodd" clip-rule="evenodd" d="M25.5262 11.6917C25.9728 11.8034 26.4141 11.931 26.8554 12.0852C27.0096 12.5637 27.1106 13.0635 27.185 13.5632C28.0942 13.4622 29.014 13.4516 29.9232 13.5473C31.1514 14.297 32.2626 15.2327 33.2409 16.2961C33.2728 16.328 33.2994 16.3652 33.3153 16.4024C32.5923 15.7272 31.6884 15.2646 30.742 14.9882C29.6308 14.6585 28.4558 14.5575 27.302 14.6C27.3924 15.674 27.3871 16.7533 27.3445 17.8273C27.0787 17.6147 26.8129 17.3967 26.5364 17.1893C26.563 16.3439 26.547 15.4986 26.4885 14.6585C25.489 14.7436 24.4947 14.9456 23.5324 15.2115C23.3037 15.0945 23.0857 14.9669 22.8518 14.8552C22.8837 14.7542 22.9422 14.6638 22.99 14.5734C24.0906 14.1694 25.2284 13.861 26.3822 13.6749C26.3131 13.223 26.228 12.7604 26.0472 12.3404C25.9462 12.1064 25.7973 11.8459 25.5315 11.7768C25.5315 11.7555 25.5262 11.713 25.5262 11.6917Z" fill="white"/>
<path fill-rule="evenodd" clip-rule="evenodd" d="M15.1157 19.2523C16.8703 17.7582 18.8056 16.4662 20.8845 15.4614C20.7409 15.7591 20.608 16.0515 20.4751 16.3493C18.6621 17.1947 16.966 18.2899 15.4401 19.5925C15.658 19.9328 15.6846 20.3848 15.5092 20.7516C15.3018 21.1982 14.7967 21.48 14.3129 21.4215C14.1002 21.4109 13.9088 21.3152 13.728 21.2142C12.8614 22.1234 12.0745 23.1123 11.378 24.1597C11.1121 24.5691 10.8516 24.9785 10.623 25.4092C12.5424 24.7765 14.499 24.282 16.4715 23.846C16.5087 24.0215 16.5672 24.1916 16.6417 24.3564C15.0838 24.7393 13.5419 25.1859 12.032 25.7229C11.4631 25.9302 10.8942 26.1376 10.3359 26.3822C10.9101 27.7379 11.6279 29.0299 12.4679 30.2369C12.2287 30.2369 11.9841 30.2422 11.7502 30.2209C11.7395 30.2103 11.7236 30.1996 11.7129 30.189C11.0058 29.1894 10.3625 28.1367 9.80952 27.0361C9.40012 27.9878 9.06516 28.9821 8.85248 29.9976C8.51221 29.9391 8.17193 29.8753 7.84229 29.7796C8.10813 28.8332 8.46967 27.9187 8.90034 27.0361C8.53347 27.2169 8.17725 27.4189 7.83165 27.6316C7.45947 27.8656 7.09261 28.1101 6.79487 28.4345C6.68321 28.5567 6.59283 28.7003 6.55029 28.8598C6.45991 28.36 6.42269 27.8496 6.40674 27.3445C7.28402 26.7224 8.27827 26.2811 9.27783 25.893C8.48562 24.0055 7.92736 21.9798 7.95394 19.9169C8.53347 18.7206 9.27783 17.6094 10.1445 16.6045C10.2508 16.4875 10.3412 16.3546 10.4688 16.2589C10.3093 16.4769 10.1498 16.6949 10.0222 16.9341C9.38417 18.056 9.14491 19.3586 9.11833 20.6347C9.10238 22.1978 9.41075 23.7503 9.90522 25.2284C10.8942 23.6387 12.0798 22.1712 13.3984 20.842C13.2761 20.6134 13.207 20.3422 13.2495 20.0764C13.2974 19.6776 13.5685 19.3161 13.9301 19.1513C14.3076 18.9705 14.7754 19.013 15.1157 19.2523Z" fill="white"/>
<path fill-rule="evenodd" clip-rule="evenodd" d="M26.4726 18.9758C26.7278 19.1885 26.9724 19.4065 27.217 19.6298C27.1372 20.5071 27.0309 21.3844 26.8979 22.2563C27.4456 22.2085 27.9932 22.1713 28.5462 22.134C28.5355 22.3308 28.5568 22.5328 28.61 22.7242C28.0145 22.7455 27.419 22.7614 26.8288 22.804C26.7757 22.9369 26.7757 23.0911 26.7438 23.2346C26.664 23.7078 26.5789 24.181 26.4886 24.6542C26.6959 24.7659 26.8714 24.9413 26.983 25.1487C27.201 25.5474 27.1585 26.0738 26.882 26.4354C26.68 26.7118 26.345 26.882 25.9994 26.9086C25.8558 27.5253 25.7017 28.1421 25.5368 28.7535C25.3188 28.796 25.1009 28.8439 24.8829 28.8864L24.8935 28.8386C25.0796 28.158 25.255 27.4775 25.4039 26.7863C25.053 26.6161 24.7978 26.2652 24.7446 25.8824C24.6755 25.4252 24.9041 24.9413 25.2923 24.7021C25.4571 24.5957 25.6485 24.5426 25.8399 24.516C25.9303 23.963 26.0154 23.4101 26.0898 22.8518C25.6538 22.8837 25.2125 22.9262 24.7765 22.9688C24.7287 23.1761 24.6223 23.3782 24.4522 23.5111C24.1917 23.7397 23.8035 23.7929 23.4845 23.66C23.2612 23.5696 23.0911 23.3888 22.9901 23.1761C22.4956 23.2399 22.0118 23.3091 21.5226 23.3888C21.5226 23.224 21.512 23.0538 21.4907 22.8943C21.9639 22.8199 22.4371 22.7561 22.9156 22.6923C22.9582 22.2085 23.4154 21.815 23.8993 21.8522C24.2714 21.8629 24.6064 22.1234 24.7393 22.469C25.2125 22.4211 25.6857 22.368 26.1589 22.3254C26.2971 21.2142 26.3982 20.0977 26.4726 18.9758Z" fill="white"/>
<path fill-rule="evenodd" clip-rule="evenodd" d="M32.6242 22.0436C33.342 22.049 34.0651 22.1021 34.7829 22.1819C34.7244 22.4903 34.6552 22.7933 34.5755 23.0964C34.081 23.006 33.5866 22.9369 33.0868 22.8837C32.9007 22.8678 32.7146 22.8305 32.5285 22.8465L32.5232 22.8358C32.6189 22.5806 32.6402 22.3095 32.6242 22.0436Z" fill="white"/>
<path fill-rule="evenodd" clip-rule="evenodd" d="M36.1864 22.4265C36.3618 22.469 36.5373 22.5168 36.7074 22.57C36.8563 23.1017 36.9733 23.6387 37.0636 24.1757C36.9892 23.9949 36.8297 23.8726 36.6649 23.7716C36.4522 23.6387 36.2129 23.543 35.979 23.4579C36.0534 23.1123 36.1279 22.772 36.1864 22.4265Z" fill="white"/>
<path fill-rule="evenodd" clip-rule="evenodd" d="M24.4256 30.3857C24.6596 30.3379 24.8882 30.29 25.1221 30.2475C24.5001 32.3849 23.7716 34.4957 22.8944 36.5373C22.5275 36.7128 22.1553 36.8829 21.7778 37.0318C22.8199 34.8838 23.6972 32.656 24.4256 30.3857Z" fill="white"/>
<path fill-rule="evenodd" clip-rule="evenodd" d="M7.54468 31.0504C7.91154 31.1514 8.2784 31.2205 8.65058 31.2843C8.52829 32.5019 8.60805 33.7566 9.02276 34.9157C9.17163 35.3251 9.36835 35.7132 9.60229 36.0748L9.60761 36.0907C9.3524 35.7983 9.14505 35.474 8.92706 35.155C8.31562 34.2192 7.79457 33.2249 7.40112 32.1775C7.42771 31.8 7.48088 31.4279 7.54468 31.0504Z" fill="white"/>
<path fill-rule="evenodd" clip-rule="evenodd" d="M12.7444 31.5396C12.9783 31.5449 13.2123 31.529 13.4462 31.5343C13.5951 31.7151 13.7493 31.8958 13.9035 32.0819C14.1161 31.9809 14.3501 31.9118 14.5893 31.9331C15.0413 31.9597 15.456 32.2733 15.6155 32.6987C15.7484 33.0443 15.7059 33.4431 15.5145 33.7567C15.674 33.9056 15.8335 34.0492 15.993 34.1927C15.9877 34.4213 15.9558 34.6447 15.9292 34.868C15.6633 34.6287 15.3975 34.3841 15.137 34.1396C14.7648 34.3735 14.265 34.3841 13.8875 34.1555C13.5047 33.9322 13.2654 33.475 13.308 33.0337C13.3186 32.821 13.3984 32.6243 13.51 32.4435C13.2495 32.1511 12.9943 31.848 12.7444 31.5396Z" fill="white"/>
<path fill-rule="evenodd" clip-rule="evenodd" d="M17.301 36.0056C17.3117 35.7717 17.3329 35.5431 17.3489 35.3091C18.4176 36.1173 19.5554 36.8298 20.7517 37.4306C20.4433 37.5422 20.1349 37.6432 19.8212 37.7389C18.9492 37.2126 18.1092 36.6277 17.301 36.0056Z" fill="white"/>
<path fill-rule="evenodd" clip-rule="evenodd" d="M29.1151 39.2064C30.3274 39.0522 31.5343 38.6375 32.4754 37.84C31.5449 38.7491 30.4869 39.5201 29.3491 40.1581C29.1364 40.2751 28.9237 40.408 28.6951 40.4984C26.3025 40.525 23.9578 39.8231 21.8098 38.8076C21.2143 39.9348 20.555 41.0407 19.6777 41.9712C19.178 41.902 18.6835 41.8116 18.1943 41.6894C18.1943 41.6734 18.1997 41.6362 18.1997 41.6202C18.3166 41.6787 18.4495 41.6787 18.5718 41.6309C18.8377 41.5299 19.0503 41.3331 19.2524 41.1311C19.8638 40.4771 20.3317 39.7062 20.7783 38.9352C21.3844 38.7279 21.9799 38.4939 22.5648 38.2334C23.1496 38.4514 23.7451 38.6481 24.3512 38.8076C25.8984 39.2117 27.5201 39.4137 29.1151 39.2064Z" fill="white"/>
<path fill-rule="evenodd" clip-rule="evenodd" d="M49.6541 9.43738H62.1433V11.6013H49.6541V9.43738ZM84.708 9.43738H94.491L95.2513 11.6013H84.708V9.43738ZM95.7085 12.9093L96.4688 15.0732H84.708V12.9093H95.7085ZM96.9314 16.3865L97.6864 18.5504H88.2968V16.3865H96.9314ZM98.0745 19.651L98.5796 21.0972L99.0581 19.651H108.841V21.815H103.716V20.4167L103.253 21.815H93.8636L93.4223 20.5602V21.815H88.2968V19.651H98.0745ZM99.4197 18.5504L100.132 16.3865H108.841V18.5504H99.4197ZM100.563 15.0732L101.275 12.9093H112.255V15.0732H100.563ZM101.706 11.6013L102.418 9.43738H112.255V11.6013H101.706ZM108.841 23.2612V25.4251H103.716V23.2612H108.841ZM108.841 26.6001V28.7641H103.716V26.6001H108.841ZM108.841 29.9338H112.255V32.0977H103.716V29.9338H108.841ZM112.255 33.2728V35.4367H103.716V33.2728H112.255ZM102.78 23.2612L102.067 25.4251H95.129L94.3687 23.2612H102.78ZM101.679 26.6001L100.972 28.7641H96.2987L95.5384 26.6001H101.679ZM100.584 29.9338L99.8716 32.0977H97.4684L96.7081 29.9338H100.584ZM99.4888 33.2728L98.7072 35.6334L97.8778 33.2728H99.4888ZM93.4223 23.2612V25.4251H88.2968V23.2612H93.4223ZM93.4223 26.6001V28.7641H88.2968V26.6001H93.4223ZM93.4223 29.9338V32.0977H84.708V29.9338H93.4223ZM93.4223 33.2728V35.4367H84.708V33.2728H93.4223ZM63.733 9.43738H76.0734C78.4341 9.43738 80.194 10.304 81.369 11.6013H63.733V9.43738ZM82.2835 12.9093C82.645 13.5845 82.8843 14.3182 83.0172 15.0732H63.733V12.9093H82.2835ZM83.1289 16.3865C83.1289 17.1893 83.0225 17.9124 82.8365 18.5504H77.6206V16.3865H83.1289ZM72.5803 18.5504H67.1092V16.3865H72.5803V18.5504ZM82.4111 19.651C81.9592 20.5655 81.3477 21.2727 80.731 21.815H67.1092V19.651H82.4111ZM80.8745 23.2612C81.4169 23.7982 82.0177 24.5266 82.4962 25.4251H67.1092V23.2612H80.8745ZM82.996 26.6001C83.2086 27.2541 83.3416 27.9772 83.3416 28.7641H77.6206V26.6001H82.996ZM72.5803 28.7641H67.1092V26.6001H72.5803V28.7641ZM83.2512 29.9338C83.1236 30.726 82.8737 31.4491 82.5228 32.0977H63.733V29.9338H83.2512ZM81.704 33.2728C80.5024 34.6339 78.7531 35.4367 76.8337 35.4367H63.733V33.2728H81.704ZM62.1433 12.9093V15.0732H49.6541V12.9093H62.1433ZM58.6448 16.3865V18.5504H53.1525V16.3865H58.6448ZM58.6448 19.651V21.815H53.1525V19.651H58.6448ZM58.6448 23.2612V25.4251H53.1525V23.2612H58.6448ZM58.6448 26.6001V28.7641H53.1525V26.6001H58.6448ZM58.6448 29.9338H62.1433V32.0977H49.6541V29.9338H58.6448ZM62.1433 33.2728V35.4367H49.6541V33.2728H62.1433Z" fill="white"/>
<path fill-rule="evenodd" clip-rule="evenodd" d="M124.015 35.2985L117.082 9.05988H122.915L127.046 26.9032L131.565 9.05988H137.047L141.603 26.6533L145.777 9.05988H151.525L144.629 35.2985H138.775L134.388 17.4818L129.975 35.2985H124.015Z" fill="white"/>
<path fill-rule="evenodd" clip-rule="evenodd" d="M164.391 33.4483C163.307 35.1656 159.181 36.3991 155.693 35.5059C153.359 34.9104 151.599 33.2835 151.599 30.0242C151.599 27.0628 153.237 25.6804 155.119 24.9786C157.341 24.1545 160.212 24.0375 162.111 23.6919C163.599 23.4207 164.136 22.9954 164.136 21.5279C164.136 19.7202 162.499 19.2204 160.946 19.2789C158.798 19.364 157.527 20.1881 157.527 22.1766H152.205C152.205 20.1881 153.088 18.6462 154.433 17.5935C156.039 16.3334 158.314 15.7432 160.558 15.7326C164.221 15.7166 169.485 16.1579 169.512 21.2355L169.575 32.7411C169.575 33.8364 169.921 34.7988 170.314 35.3411L164.726 35.2985L164.391 33.4483ZM164.211 26.0472C163.163 26.9139 160.414 27.0043 158.899 27.4509C157.729 27.8018 156.895 28.5089 156.895 29.7956C156.895 31.38 157.868 32.2892 160.25 32.2733C162.18 32.2573 164.211 31.0876 164.211 28.2963V26.0472Z" fill="white"/>
<path fill-rule="evenodd" clip-rule="evenodd" d="M183.957 35.5271C182.681 35.6228 181.4 35.6335 180.124 35.6335C178.481 35.6335 177.141 35.2932 176.232 34.6073C175.089 33.746 174.818 32.7464 174.807 30.5665L174.77 19.8531H171.596V16.2855H174.77V10.6284H180.092V16.2855H183.952V19.8531H180.092L180.124 29.9391C180.124 30.5984 180.411 31.0557 180.9 31.2205C181.698 31.497 183.107 31.4278 183.989 31.3747L183.957 35.5271Z" fill="white"/>
<path fill-rule="evenodd" clip-rule="evenodd" d="M185.505 29.1044H190.524C190.635 31.3321 192.518 32.2147 194.347 32.2626C196.383 32.3157 197.909 31.3268 197.909 30.0189C197.909 29.1735 197.297 28.5142 196.106 28.0729C194.618 27.5146 192.289 27.2009 190.391 26.6001C188.987 26.1535 187.865 25.7122 187.084 24.8828C186.042 23.7875 185.786 22.2403 186.047 20.7569C186.254 19.55 186.791 18.375 187.685 17.5934C189.269 16.2004 191.693 15.7006 194.043 15.7006C196.388 15.7006 198.85 16.1845 200.243 17.2744C201.716 18.4175 202.582 19.7786 202.593 21.8788H197.579C197.489 19.8265 195.708 19.2735 194.043 19.2948C192.565 19.3108 191.188 19.6723 191.188 21.161C191.188 21.9904 192.188 22.5912 193.31 22.9315C194.899 23.4207 197.053 23.6706 199.132 24.3405C201.402 25.0742 203.21 26.4885 203.21 29.2851C203.21 31.162 202.418 32.6667 201.402 33.6769C199.733 35.3463 197.175 35.8514 194.517 35.8408C191.832 35.8302 189.418 35.2666 188.035 34.1713C186.409 32.89 185.505 31.1939 185.505 29.1044Z" fill="white"/>
<path fill-rule="evenodd" clip-rule="evenodd" d="M210.308 25.8026C210.308 27.7539 210.712 29.2586 211.509 30.322C212.307 31.3853 213.445 31.8798 214.917 31.8798C216.374 31.8798 217.496 31.3853 218.299 30.322C219.096 29.2586 219.495 27.7539 219.495 25.8026C219.495 23.862 219.102 22.3627 218.31 21.3046C217.517 20.2519 216.417 19.7574 214.955 19.7574C213.482 19.7574 212.307 20.2519 211.509 21.3046C210.712 22.3627 210.308 23.862 210.308 25.8026ZM205.055 25.8452C205.055 22.7508 205.927 20.321 207.676 18.5505C209.42 16.7747 211.818 15.8229 214.87 15.8229C217.916 15.8229 220.309 16.78 222.063 18.5505C223.818 20.321 224.69 22.7508 224.69 25.8452C224.69 28.9502 223.818 31.3906 222.063 33.1612C220.309 34.9317 217.916 35.8834 214.87 35.8834C211.818 35.8834 209.42 34.9317 207.676 33.1612C205.927 31.3906 205.055 28.9502 205.055 25.8452Z" fill="white"/>
<path fill-rule="evenodd" clip-rule="evenodd" d="M227.146 35.2985V16.2908H232.154L232.149 18.9333C233.776 16.5194 235.86 15.7272 238.168 15.7272C242.544 15.7272 245 17.8061 245 22.8305V35.2985H239.662V24.2767C239.662 22.0277 239.04 19.9807 236.498 19.9807C233.968 19.9807 232.484 21.4269 232.484 24.8084V35.2985H227.146Z" fill="white"/>
</svg>
