<svg width="64" height="26" viewBox="0 0 64 26" fill="none" xmlns="http://www.w3.org/2000/svg">
<path d="M0 0.199951V1.95195H12.46V0.199951H0ZM14.22 0.199951V1.95195H31.972C31.972 1.95195 30.158 0.199951 27.758 0.199951H14.22ZM35.456 0.199951V1.95195H46.196L45.556 0.199951H35.456ZM53.896 0.199951L53.256 1.95195H63.896V0.199951H53.896ZM0 3.60595V5.35795H12.46V3.60595H0ZM14.22 3.60795V5.35795H34.032C34.032 5.35795 33.8 4.00995 33.398 3.60795H14.22ZM35.456 3.60795V5.35795H47.376L46.786 3.60795H35.456ZM52.622 3.60795L52.032 5.35795H63.902V3.60795H52.622ZM3.6 7.01195V8.76595H8.994V7.01195H3.6ZM17.82 7.01195V8.76595H23.2V7.01195H17.82ZM28.46 7.01195V8.76595H33.856C33.856 8.76595 34.196 7.83995 34.196 7.01195H28.46ZM39.052 7.01195V8.76595H48.6L47.96 7.01195H39.052ZM51.462 7.01195L50.822 8.76595H60.4V7.01195H51.462ZM3.6 10.42V12.172H8.994V10.42H3.6ZM17.82 10.42V12.172H31.62C31.62 12.172 32.772 11.272 33.14 10.42H17.82ZM39.056 10.42V12.172H44.45V11.2L44.79 12.174H54.67L55.038 11.2V12.174H60.4V10.422H50.272L49.732 11.906L49.192 10.422L39.056 10.42ZM3.6 13.8279V15.58H8.994V13.8279H3.6ZM17.82 13.8279V15.58H33.12C32.752 14.73 31.6 13.8279 31.6 13.8279H17.82ZM39.056 13.8279V15.58H44.45V13.8279H39.056ZM45.432 13.8279L46.084 15.58H53.494L54.094 13.8279H45.432ZM55.044 13.8279V15.58H60.4V13.8279H55.044ZM3.6 17.234V18.986H8.994V17.234H3.6ZM17.82 17.234V18.986H23.2V17.234H17.82ZM28.46 17.234V18.986H34.2C34.2 18.16 33.86 17.234 33.86 17.234H28.46ZM39.052 17.234V18.986H44.446V17.234H39.052ZM46.652 17.234L47.284 18.986H52.252L52.892 17.234H46.652ZM55.04 17.234V18.986H60.4V17.234H55.04ZM0.1 20.6399V22.394H12.56V20.6399H0.1ZM14.226 20.6399V22.394H33.406C33.81 21.994 34.04 20.6399 34.04 20.6399H14.226ZM35.558 20.6399V22.394H44.438V20.6399H35.558ZM47.868 20.6399L48.518 22.394H51.046L51.656 20.6399H47.868ZM55.028 20.6399V22.394H64V20.6399H55.028ZM0.1 24.048V25.7999H12.56V24.048H0.1ZM14.226 24.048V25.798H27.766C30.166 25.798 31.982 24.048 31.982 24.048H14.226ZM35.558 24.048V25.7999H44.438V24.048H35.558ZM49.098 24.048L49.724 25.7939L49.832 25.796L50.468 24.046L49.098 24.048ZM55.026 24.048V25.7999H64V24.048H55.026Z" fill="white"/>
</svg>
