<svg width="244" height="50" viewBox="0 0 244 50" fill="none" xmlns="http://www.w3.org/2000/svg">
<path d="M81.6559 29.1396C81.2095 30.8036 80.8848 32.4675 80.6413 34.1721C77.151 34.0503 74.6754 34.0097 73.1738 34.0097C71.7127 34.0097 69.2371 34.0503 65.828 34.1721C65.6656 34.1721 65.6251 34.0503 65.6251 33.8068C65.6251 33.5633 65.7062 33.4416 65.828 33.4416C66.5991 33.401 67.3702 33.1981 68.0601 32.8328C68.5066 32.3864 68.7501 31.7776 68.6689 31.1282V18.263C68.7095 17.8166 68.6283 17.3295 68.4254 16.9237C68.2225 16.6396 67.9384 16.4367 67.5731 16.3149C67.0049 16.112 66.3962 15.9903 65.7874 15.9497C65.6251 15.9091 65.5845 15.7873 65.5845 15.5438C65.5845 15.3003 65.6656 15.138 65.7874 15.1786C66.3962 15.1786 67.1267 15.2192 67.979 15.2597C68.8312 15.3003 69.5212 15.3409 70.0488 15.3409C70.6169 15.3409 71.2663 15.3003 72.078 15.2597C72.8897 15.2192 73.6202 15.1786 74.2695 15.1786C74.4319 15.1786 74.4725 15.3003 74.4725 15.5438C74.4725 15.7873 74.3913 15.9091 74.2695 15.9091C73.6608 15.9497 73.0926 16.0714 72.5244 16.2743C72.1997 16.3961 71.8751 16.599 71.6721 16.8831C71.4692 17.289 71.388 17.776 71.4286 18.2224V31.4935C71.3069 32.2646 71.8345 32.9951 72.6056 33.1169C72.7273 33.1169 72.8491 33.1169 72.9708 33.1169H75.7306C76.7452 33.1575 77.7598 32.8328 78.5715 32.224C79.5861 31.2906 80.3572 30.1542 80.8848 28.8961C80.9254 28.8149 81.0066 28.7744 81.1283 28.7744C81.2501 28.7744 81.3718 28.8149 81.453 28.8961C81.5747 28.8961 81.6559 29.0179 81.6559 29.1396ZM103.734 24.7565C103.815 27.3945 102.8 29.9513 100.933 31.8588C96.7533 35.5519 90.5439 35.5519 86.3637 31.8588C84.4968 29.9919 83.4822 27.4351 83.5634 24.7565C83.5634 19.1964 88.0682 14.6916 93.6283 14.6916C99.1884 14.6916 103.693 19.1964 103.734 24.7565ZM100.731 24.7565C100.852 22.4026 100.162 20.0893 98.7825 18.1818C96.6721 15.3409 92.6543 14.7727 89.8134 16.9237C89.3264 17.289 88.9205 17.6948 88.5553 18.1818C87.216 20.0893 86.526 22.4026 86.6072 24.7565C86.4854 27.0698 87.1754 29.3425 88.5147 31.25C90.7468 34.0909 94.8864 34.5373 97.7273 32.3052C98.1332 31.9805 98.4578 31.6558 98.7825 31.25C100.162 29.3425 100.852 27.0698 100.731 24.7565ZM128.084 15.5032C128.084 15.7468 128.003 15.8685 127.882 15.8685C127.07 15.9091 126.258 16.112 125.528 16.5179C125.041 16.9237 124.797 17.5731 124.878 18.1818L124.554 34.2938C124.554 34.4562 124.432 34.5779 124.229 34.5779C124.067 34.5373 123.904 34.4967 123.783 34.375L109.74 18.3847L109.537 31.0471C109.537 31.1282 109.537 31.1688 109.537 31.25C109.497 31.8182 109.74 32.3864 110.187 32.711C110.917 33.0763 111.729 33.2792 112.541 33.3604C112.703 33.3604 112.744 33.4821 112.744 33.7256C112.744 33.9691 112.662 34.0909 112.541 34.0909C112.054 34.0909 111.404 34.0503 110.593 34.0097C109.781 33.9692 109.172 33.9286 108.807 33.9286C108.36 33.9286 107.752 33.9692 106.981 34.0097C106.209 34.0503 105.641 34.0909 105.235 34.0909C105.073 34.0909 105.033 33.9691 105.033 33.7256C105.033 33.4821 105.114 33.3604 105.276 33.3604C106.088 33.3198 106.899 33.1169 107.63 32.711C108.117 32.3052 108.36 31.6558 108.32 31.0471L108.807 18.1818V18.0601C108.888 17.4513 108.645 16.8831 108.158 16.5179C107.427 16.1526 106.615 15.9091 105.763 15.8685C105.641 15.8685 105.56 15.7468 105.56 15.5032C105.56 15.2597 105.641 15.138 105.763 15.138C106.088 15.138 106.534 15.1786 107.102 15.2192C107.671 15.2597 108.076 15.3003 108.239 15.3003C108.604 15.3003 109.01 15.2597 109.375 15.2192C109.781 15.1786 110.146 15.138 110.552 15.138L123.701 29.8701V18.3036C123.783 17.6948 123.498 17.086 123.052 16.6802C122.281 16.2743 121.469 16.0308 120.617 15.9903C120.455 15.9903 120.414 15.8685 120.414 15.625C120.414 15.3815 120.495 15.2597 120.617 15.2597C121.104 15.2597 121.753 15.3003 122.606 15.3409C123.417 15.3815 124.026 15.4221 124.391 15.4221C124.838 15.4221 125.446 15.3815 126.218 15.3409C126.989 15.3003 127.557 15.2597 127.963 15.2597C128.044 15.1786 128.084 15.2597 128.084 15.5032ZM149.959 25.7711C149.959 26.0146 149.878 26.1364 149.757 26.1364C148.985 26.1769 148.214 26.3799 147.524 26.7451C147.078 27.1916 146.834 27.8003 146.916 28.4497V30.073C146.875 31.0471 146.956 32.0211 147.2 32.9545C145.942 33.4416 144.643 33.8474 143.304 34.1315C142.086 34.4156 140.828 34.5779 139.57 34.5779C137.662 34.6185 135.796 34.2127 134.091 33.3604C132.549 32.5487 131.291 31.3312 130.438 29.8295C129.546 28.2873 129.099 26.5016 129.14 24.7565C129.099 21.0633 131.169 17.6948 134.497 16.0308C136.242 15.1786 138.19 14.7321 140.138 14.7727C141.234 14.8133 142.37 14.9757 143.466 15.2192C144.399 15.4221 145.333 15.5438 146.266 15.5844C146.388 16.8425 146.591 18.4253 146.916 20.2516C146.916 20.414 146.753 20.4545 146.469 20.4545C146.266 20.4545 146.145 20.3734 146.145 20.2516C145.333 17.2078 143.222 15.6656 139.732 15.6656C137.622 15.6656 135.633 16.6396 134.334 18.3036C132.873 20.1299 132.102 22.4432 132.143 24.7971C132.062 27.1104 132.833 29.3425 134.294 31.1282C135.552 32.7922 137.5 33.7662 139.57 33.7256C142.614 33.7256 144.156 32.9545 144.156 31.4529V27.8003C144.156 27.3133 143.872 26.9075 143.425 26.7451C142.289 26.4205 141.153 26.2175 139.976 26.1364C139.813 26.1364 139.773 26.0146 139.773 25.7305C139.773 25.4464 139.854 25.3247 139.976 25.3653C140.584 25.3653 141.477 25.4058 142.695 25.4464C143.872 25.487 144.724 25.5276 145.252 25.5276C145.779 25.5276 146.51 25.487 147.443 25.4464C148.336 25.4058 149.107 25.3653 149.797 25.3653C149.878 25.3653 149.959 25.487 149.959 25.7711ZM170.13 33.7662C170.13 34.0097 170.049 34.1315 169.927 34.1315C169.602 34.1315 169.034 34.0909 168.263 34.0503C167.695 34.0097 167.33 33.9691 167.167 33.9691C166.883 33.9691 166.477 34.0097 165.909 34.0503C165.341 34.0909 164.935 34.1315 164.651 34.1315L160.511 27.3945C160.146 26.7451 159.659 26.1364 159.091 25.6088C158.401 25.2841 157.671 25.1217 156.94 25.2029V31.0877C156.899 31.5341 156.981 32.0211 157.183 32.4269C157.386 32.711 157.671 32.9545 158.036 33.0357C158.604 33.2386 159.172 33.3604 159.781 33.401C159.943 33.401 160.024 33.5227 160.024 33.7662C160.024 34.0097 159.943 34.1315 159.821 34.1315C159.213 34.1315 158.482 34.0909 157.63 34.0503C156.778 34.0097 156.088 33.9691 155.601 33.9691C155.033 33.9691 154.383 34.0097 153.571 34.0503C152.76 34.0909 152.029 34.1315 151.38 34.1315C151.218 34.1315 151.177 34.0097 151.177 33.7662C151.177 33.5227 151.258 33.401 151.38 33.401C151.989 33.3604 152.557 33.2386 153.125 33.0357C153.45 32.914 153.774 32.711 153.977 32.4269C154.18 32.0211 154.261 31.5341 154.221 31.0877V18.263C154.261 17.8166 154.18 17.3295 153.977 16.9237C153.774 16.6396 153.49 16.3961 153.166 16.3149C152.597 16.112 151.989 15.9903 151.38 15.9497C151.218 15.9497 151.177 15.8279 151.177 15.5844C151.177 15.3409 151.258 15.2192 151.38 15.2192C151.989 15.2192 152.719 15.2597 153.571 15.3003C154.424 15.3409 155.073 15.3815 155.601 15.3815C156.169 15.3815 156.859 15.3409 157.671 15.3003C158.482 15.2597 159.213 15.2192 159.862 15.2192C161.526 15.138 163.19 15.5844 164.529 16.5179C165.666 17.3701 166.274 18.75 166.193 20.1705C166.193 21.1851 165.747 22.1997 165.057 22.9302C164.205 23.8231 163.109 24.513 161.932 24.8782L166.356 31.6153C166.68 32.1834 167.167 32.6704 167.776 32.9545C168.466 33.2792 169.237 33.4821 170.008 33.5633C170.008 33.401 170.089 33.5227 170.13 33.7662ZM163.149 20.0487C163.149 17.3701 161.972 16.0714 159.659 16.0714C159.091 16.0714 158.482 16.112 157.914 16.2743C157.589 16.3555 157.305 16.5584 157.143 16.8425C156.981 17.289 156.899 17.776 156.94 18.2224V24.3101C157.589 24.3912 158.279 24.4318 158.929 24.4318C160.106 24.5536 161.242 24.1477 162.135 23.3766C162.865 22.4432 163.231 21.2662 163.149 20.0487ZM188.149 29.6266C187.459 31.0877 186.851 32.5893 186.364 34.1315C182.914 34.0097 180.479 33.9691 179.018 33.9691C177.557 33.9691 175.122 34.0097 171.672 34.1315C171.51 34.1315 171.469 34.0097 171.469 33.7662C171.469 33.5227 171.55 33.401 171.672 33.401C172.281 33.3604 172.849 33.2386 173.417 33.0357C173.742 32.914 174.067 32.711 174.27 32.4269C174.472 32.0211 174.554 31.5341 174.513 31.0877V18.2224C174.554 17.776 174.472 17.289 174.27 16.8831C174.067 16.599 173.783 16.3961 173.417 16.2743C172.849 16.0714 172.24 15.9497 171.632 15.9091C171.469 15.9091 171.429 15.7873 171.429 15.5438C171.429 15.3003 171.51 15.1786 171.632 15.1786C173.945 15.3003 176.258 15.3409 178.653 15.3409C181.047 15.3409 183.401 15.3003 185.674 15.1786C185.917 16.599 186.242 17.9789 186.648 19.3588C186.648 19.5211 186.485 19.6429 186.161 19.6429C186.039 19.6834 185.917 19.6023 185.836 19.4805C185.39 17.4919 183.563 16.112 181.534 16.2743H178.774C178.003 16.1932 177.273 16.7614 177.192 17.5325C177.192 17.6542 177.192 17.776 177.192 17.8977V23.9854H180.641C181.331 24.0666 182.021 23.8231 182.508 23.336C182.914 22.6461 183.158 21.9156 183.198 21.1039C183.198 20.9416 183.32 20.901 183.563 20.901C183.807 20.901 183.929 20.9821 183.929 21.1039C183.929 21.5503 183.888 22.1185 183.847 22.849C183.807 23.539 183.766 24.0666 183.766 24.4724C183.766 24.9188 183.807 25.4464 183.847 26.0958C183.888 26.7451 183.929 27.3539 183.929 27.8409C183.929 28.0032 183.807 28.0438 183.563 28.0438C183.32 28.0438 183.198 27.9627 183.198 27.8409C183.158 27.0292 182.914 26.2175 182.468 25.487C182.021 25 181.331 24.7565 180.641 24.7971H177.192V31.5341C177.07 32.3052 177.597 33.0357 178.369 33.1575C178.49 33.1575 178.612 33.1575 178.734 33.1575H181.737C182.914 33.1169 184.01 32.7516 184.943 32.1023C185.958 31.4529 186.77 30.5195 187.297 29.4643C187.338 29.3831 187.419 29.3425 187.541 29.3425C187.662 29.3425 187.784 29.3831 187.865 29.4643C187.946 29.5049 188.028 29.6266 187.987 29.7078L188.149 29.6266ZM207.995 33.7662C207.995 34.0097 207.914 34.1315 207.792 34.1315C207.143 34.1315 206.453 34.0909 205.641 34.0503C204.951 34.0097 204.383 33.9691 203.896 33.9691C203.409 33.9691 202.719 34.0097 201.826 34.0503C200.974 34.0909 200.203 34.1315 199.594 34.1315C199.432 34.1315 199.391 34.0097 199.391 33.7662C199.391 33.5227 199.432 33.401 199.554 33.401C200.162 33.401 200.731 33.2792 201.299 33.0763C201.623 32.9545 201.826 32.5893 201.826 32.2646C201.786 31.8994 201.664 31.4935 201.502 31.1688L199.959 26.5828H194.318L192.776 30.8036C192.614 31.2094 192.492 31.6558 192.492 32.1023C192.492 32.914 193.222 33.3604 194.683 33.401C194.805 33.401 194.846 33.5227 194.846 33.7662C194.846 34.0097 194.765 34.1315 194.643 34.1315C194.115 34.1315 193.507 34.0909 192.817 34.0503C192.167 34.0097 191.599 33.9691 191.153 33.9691C190.747 33.9691 190.26 34.0097 189.692 34.0503C189.083 34.0909 188.596 34.1315 188.149 34.1315C188.028 34.1315 187.946 34.0097 187.946 33.8068C187.946 33.5633 188.068 33.4416 188.271 33.401C188.92 33.3604 189.529 33.1575 190.057 32.7516C190.666 32.1429 191.153 31.4123 191.437 30.6006L197.849 14.8945C197.93 14.7321 198.052 14.651 198.214 14.6916C198.417 14.6916 198.58 14.7727 198.62 14.8945L204.261 30.6006C204.505 31.3718 204.951 32.0211 205.56 32.5487C206.209 32.9951 206.94 33.2792 207.752 33.3198C207.955 33.3604 208.036 33.4821 208.036 33.6851L207.995 33.7662ZM199.675 25.6493L197.281 18.6282L194.683 25.6493H199.675ZM229.383 24.7971C229.464 27.3539 228.45 29.8295 226.583 31.5747C224.716 33.2792 222.159 34.1721 218.953 34.1721C218.547 34.1721 217.735 34.1721 216.518 34.1315C215.3 34.0909 214.448 34.0909 214.002 34.0909C212.297 34.0909 210.633 34.1315 209.05 34.2127C208.888 34.2127 208.847 34.0909 208.847 33.8474C208.847 33.6039 208.929 33.4821 209.05 33.4821C209.659 33.4416 210.227 33.3198 210.796 33.1169C211.12 32.9951 211.445 32.7922 211.648 32.5081C211.851 32.1023 211.932 31.6153 211.891 31.1688V18.3442C211.932 17.8977 211.851 17.4107 211.648 17.0049C211.445 16.7208 211.161 16.4773 210.836 16.3961C210.268 16.1932 209.659 16.0714 209.05 16.0308C208.888 16.0308 208.847 15.9091 208.847 15.6656C208.847 15.4221 208.929 15.3003 209.05 15.3003C210.106 15.3815 211.729 15.4221 214.002 15.4221L216.518 15.3815L218.953 15.3409C221.713 15.2192 224.432 16.1932 226.502 18.0195C228.409 19.6429 229.424 22.1591 229.383 24.7971ZM226.38 24.7971C226.461 22.5243 225.649 20.3328 224.188 18.5877C222.89 17.0049 220.901 16.0714 218.872 16.112H218.791L216.234 16.1526C215.138 16.1932 214.61 16.7208 214.61 17.6948V31.5747C214.529 32.3458 215.057 33.0357 215.828 33.1575C215.95 33.1575 216.112 33.1575 216.234 33.1575L218.791 33.2386C220.86 33.2792 222.849 32.3864 224.188 30.8036C225.649 29.1396 226.421 26.9886 226.38 24.7971ZM243.466 28.6932C243.547 30.3166 242.979 31.8588 241.843 33.0357C240.666 34.1315 239.042 34.6997 237.419 34.6185C236.445 34.5779 235.471 34.4562 234.497 34.1721C233.685 33.9286 232.833 33.8068 231.981 33.7662C231.94 32.224 231.818 30.6412 231.656 29.099C231.656 28.9367 231.778 28.8961 232.062 28.8961C232.224 28.8961 232.346 28.9773 232.427 29.099C232.711 30.4383 233.36 31.6964 234.334 32.711C235.227 33.4415 236.404 33.8068 237.541 33.7662C238.474 33.8068 239.408 33.4821 240.097 32.8328C240.747 32.1023 241.071 31.1282 240.99 30.1542C240.99 29.3831 240.706 28.6526 240.219 28.0844C239.205 27.1104 238.068 26.2581 236.851 25.6493C235.39 24.9188 234.05 23.9448 232.955 22.7679C232.346 22.0373 232.021 21.1039 232.021 20.1299C232.021 18.7094 232.63 17.3295 233.685 16.3555C234.821 15.3003 236.323 14.7321 237.865 14.8133C238.596 14.8133 239.326 14.8945 240.057 15.0568C240.706 15.2192 241.396 15.2597 242.045 15.3003C242.167 16.9237 242.289 18.3036 242.492 19.5617C242.492 19.724 242.37 19.7646 242.127 19.7646C241.883 19.7646 241.761 19.6834 241.721 19.5617C241.558 18.4659 241.071 17.4513 240.341 16.599C239.651 15.9497 238.758 15.6656 237.825 15.7062C236.12 15.5844 234.619 16.8831 234.497 18.5877C234.497 18.75 234.497 18.8718 234.497 19.0341C234.537 19.724 234.781 20.3734 235.268 20.901C236.242 21.8344 237.338 22.6055 238.555 23.2549C240.016 24.026 241.315 25 242.451 26.177C243.141 26.7857 243.466 27.7192 243.466 28.6932Z" fill="white"/>
<path d="M25 1.46106C37.9465 1.46106 48.4172 11.9724 48.4172 24.8783C48.4172 37.7841 37.9059 48.2955 25 48.2955C12.0942 48.2955 1.54224 37.8247 1.54224 24.8783C1.54224 11.9318 12.0536 1.46106 25 1.46106Z" fill="black"/>
<path d="M28.5716 35.0243C29.4645 35.0243 30.3574 34.7402 31.0879 34.2532C32.346 33.1574 33.2794 31.7776 33.807 30.1948C33.807 30.1136 33.9694 30.0324 34.1317 30.0324C34.294 30.0324 34.4158 30.073 34.5375 30.1948C34.6187 30.2759 34.6999 30.3977 34.6999 30.5194C34.1723 32.5081 33.7664 34.5779 33.4418 36.6071H15.8281C15.6658 36.6071 15.5846 36.4448 15.5846 36.1201C15.5846 35.7954 15.6658 35.6331 15.8281 35.6331C16.8427 35.5519 17.8168 35.349 18.7096 34.9431C19.2778 34.4561 19.5619 33.7256 19.4807 32.9951V17.0454C19.5213 16.4772 19.3996 15.9091 19.1561 15.422C18.872 15.0974 18.5473 14.8133 18.1414 14.6509C17.4515 14.4074 16.7616 14.2451 16.0311 14.1639C15.8687 14.1639 15.7876 14.0016 15.7876 13.6769C15.7876 13.3522 15.8687 13.1899 16.0311 13.1899H26.0148C26.1772 13.1899 26.2583 13.3522 26.2583 13.6769C26.2583 14.0016 26.1772 14.1639 26.0148 14.1639C25.2843 14.2451 24.5944 14.4074 23.9044 14.6509C23.4986 14.8133 23.1739 15.0568 22.8898 15.3409C22.6869 15.909 22.6463 16.4772 22.6463 17.0454V33.198C22.6463 34.1314 23.1739 35.1461 24.0668 35.1461C24.9596 35.1461 27.557 35.1055 28.5716 35.0243ZM25.0002 4.586C13.7989 4.586 4.70801 13.6769 4.70801 24.8782C4.70801 36.0795 13.7989 45.1704 25.0002 45.1704C36.2015 45.1704 45.2924 36.0795 45.2924 24.8782C45.2924 24.8376 45.2924 24.8376 45.2924 24.797C45.2924 13.6363 36.2827 4.58599 25.122 4.54541C25.0814 4.58599 25.0408 4.586 25.0002 4.586Z" fill="white"/>
<path d="M25 47.6461C12.5 47.6461 2.3539 37.5 2.3539 25C2.3539 12.5 12.5 2.3539 25 2.3539C37.5 2.3539 47.6461 12.5 47.6461 25C47.6461 37.5 37.5 47.6461 25 47.6461ZM25 0C11.2013 0 0 11.2013 0 25C0 38.7987 11.2013 50 25 50C38.7987 50 49.9594 38.7987 49.9594 25C49.9594 11.2013 38.7987 0 25 0Z" fill="white"/>
</svg>
