<svg width="148" height="29" viewBox="0 0 148 29" fill="none" xmlns="http://www.w3.org/2000/svg">
<path d="M74.7483 25.7587C74.7483 26.271 74.7483 26.3845 75.097 26.7002L77.0384 28.6026V28.6857H68.4301V25.0304C67.5654 27.4396 65.2724 29.0318 62.7214 28.9972C58.2959 28.9972 55.0838 25.5178 55.0838 19.1155C55.0838 13.1203 58.5498 9.11883 63.4146 9.11883C65.5709 8.98315 67.5779 10.2293 68.4176 12.2272V4.1662C68.4817 3.79236 68.3297 3.41575 68.0242 3.19145L66.1748 1.3915V1.30843L74.7483 0.297685V25.7587ZM68.4273 24.5984V12.572C68.1216 12.1891 67.7313 11.8812 67.2865 11.6721C66.8417 11.463 66.3545 11.3582 65.8624 11.366C63.7703 11.366 61.7479 13.2684 61.7479 18.9161C61.7479 24.2052 63.4913 26.0744 65.6643 26.0744C66.7801 26.0522 67.7913 25.5067 68.4259 24.6012L68.4273 24.5984ZM80.4556 28.6829V12.4432C80.5113 12.0804 80.3802 11.7149 80.1069 11.4685L78.2003 9.49683V9.41375H86.8086V25.8833C86.8086 26.3956 86.8086 26.5091 87.1573 26.8248L89.0541 28.6248V28.7079L80.4556 28.6829ZM80.1431 3.47944C80.1383 2.56189 80.5007 1.67997 81.1506 1.02752C81.8005 0.375076 82.6848 0.00549294 83.6091 0C84.5333 0.00549294 85.4176 0.375076 86.0675 1.02752C86.7175 1.67997 87.0798 2.56189 87.075 3.47944C87.0798 4.397 86.7175 5.27892 86.0675 5.93137C85.4176 6.58382 84.5333 6.9534 83.6091 6.95889C82.6848 6.9534 81.8005 6.58382 81.1506 5.93137C80.5007 5.27892 80.1383 4.397 80.1431 3.47944ZM110.038 25.7255C110.038 26.2378 110.038 26.3859 110.387 26.7002L112.328 28.6026V28.6857H103.674V24.5223C102.886 27.1557 100.484 28.9668 97.7461 28.9986C93.9106 28.9986 91.8534 26.1921 91.8534 20.8794L91.9343 12.3546C91.997 12.0015 91.8645 11.6415 91.5856 11.4131L89.679 9.4996V9.41652H98.2176V20.0058C98.2176 23.4852 98.7266 25.8044 100.898 25.8044C102.064 25.731 103.13 25.0733 103.695 24.0529V12.4543C103.75 12.0915 103.619 11.726 103.346 11.4795L101.428 9.49683V9.41375H110.037L110.038 25.7255ZM139.328 28.6829L139.443 18.2432C139.443 14.7638 138.899 12.3629 136.463 12.3629C135.235 12.4003 134.1 13.0206 133.401 14.0327C133.646 15.1172 133.763 16.2264 133.749 17.3377L133.633 25.8972C133.57 26.2502 133.703 26.6102 133.981 26.8387L135.923 28.6386V28.7217H127.234L127.349 18.282C127.349 14.7444 126.806 12.4017 124.402 12.4017C123.817 12.4236 123.247 12.5927 122.746 12.893C122.245 13.1933 121.829 13.615 121.536 14.1185V25.9484C121.536 26.4607 121.536 26.5742 121.885 26.8899L123.782 28.6899V28.7729H115.185V12.5027C115.24 12.14 115.109 11.7745 114.836 11.528L112.939 9.49821V9.41514H121.547V13.5439C122.345 10.8163 124.889 8.98592 127.718 9.10222C130.584 9.10222 132.524 10.7028 133.345 13.7406C134.256 10.9382 136.88 9.05791 139.817 9.10222C143.653 9.10222 145.826 11.9434 145.826 17.3128L145.71 25.8722C145.643 26.2364 145.796 26.6061 146.103 26.8138L148 28.6137V28.6968L139.328 28.6829ZM31.1989 26.1547L33.7513 28.6026V28.6857H20.7984V28.6026L23.3982 26.1547C23.6771 25.9276 23.8082 25.569 23.7468 25.2132V9.56744C23.7468 8.907 23.7468 8.01256 23.8626 7.24827L15.1399 28.9931H15.0353L5.98762 8.98592L5.60685 8.1164V21.2339C5.49806 22.1117 5.6487 23.002 6.03504 23.7954L9.66136 28.5971V28.6802H0V28.5971L3.62632 23.7843C4.01127 22.9923 4.15911 22.1062 4.05451 21.2325V6.73598C4.11309 6.02153 3.8983 5.31263 3.45477 4.75326L0.878685 1.40258V1.3195H10.123L17.8638 18.2667L24.6813 1.3195H33.729V1.40258L31.1864 4.24373C30.8823 4.46526 30.7289 4.84464 30.7931 5.21848V25.2132C30.7261 25.5773 30.8795 25.947 31.1864 26.1547H31.1989ZM41.3331 18.3138V18.3969C41.3331 23.3606 43.8855 25.3558 46.88 25.3558C48.1073 25.3947 49.3193 25.0761 50.3664 24.4394C51.4136 23.8027 52.2501 22.8756 52.7728 21.7725H52.8537C51.8132 26.6781 48.7866 29 44.2565 29C39.3693 29 34.7723 26.0425 34.7723 19.1875C34.7723 11.9849 39.3944 9.10776 44.502 9.10776C48.6164 9.10776 52.9959 11.0559 52.9959 17.3183V18.3152L41.3331 18.3138ZM41.3331 17.3169H47.0292V16.3062C47.0292 11.2026 45.9776 9.84574 44.3932 9.84574C42.4754 9.84574 41.308 11.8755 41.308 17.3155L41.3331 17.3169Z" fill="white"/>
</svg>
