<svg width="137" height="29" viewBox="0 0 137 29" fill="none" xmlns="http://www.w3.org/2000/svg">
<path d="M133.043 20.9973C130.856 20.9973 129.085 22.7746 129.085 24.9616C129.085 27.1486 130.856 28.9259 133.043 28.9259C135.23 28.9259 137 27.1486 137 24.9616C137 22.7746 135.23 20.9973 133.043 20.9973ZM111.339 23.2535L111.344 0H108.949C108.949 0 104.971 1.46864 102.107 1.78259V6.17788H103.914C104.497 6.17788 104.747 6.43329 104.747 6.98669V23.2588C104.747 23.8335 104.419 24.1475 103.883 24.1794L102.404 24.2858V28.6811H113.677V24.2858L112.198 24.1794C111.662 24.1421 111.334 23.8282 111.334 23.2535H111.339ZM134.131 11.7066C133.912 6.81109 127.414 6.58228 124.029 9.89737L123.404 7.99771H115.609V12.4888H117.254C117.838 12.4888 118.051 12.7442 118.062 13.2976V23.2588C118.062 23.8335 117.734 24.1475 117.197 24.1794L115.823 24.2752V28.6704H126.872V24.2752L125.503 24.1794C124.966 24.1421 124.638 23.8282 124.638 23.2588V16.5009C124.638 15.2345 124.925 13.122 127.106 12.5846C127.377 14.6971 129.372 15.325 130.345 15.325C132.803 15.325 134.188 13.4413 134.188 11.7066H134.131ZM92.4893 7.71569C90.823 7.79019 89.0526 8.44469 87.7664 9.5781V0H85.4076C85.4076 0 81.5335 1.40479 78.5342 1.78259L78.43 6.17788L80.3254 6.1832C80.9086 6.1832 81.1586 6.43861 81.1586 6.99201V28.6758L86.574 28.6704L87.3551 26.8932C87.5217 26.989 90.0107 29.3782 93.9681 28.8993C98.967 28.298 101.591 24.2539 101.591 18.1186C101.591 14.8993 100.628 7.36982 92.4789 7.73166L92.4893 7.71569ZM91.4895 23.8654C90.5679 23.9346 88.8651 23.775 87.7716 21.8115V15.6123C87.7716 14.1756 89.0734 12.9092 91.0834 12.8347C93.0933 12.7602 94.9263 14.1809 94.9263 18.1931C94.9263 23.61 92.5987 23.7909 91.4895 23.8708V23.8654ZM76.8939 23.2641V17.0064C76.8939 14.7716 76.8679 12.4622 75.4203 10.5785C74.0925 8.85442 71.8951 7.58798 68.5573 7.75826C66.339 7.86469 63.975 8.91828 62.6732 10.7222L62.4649 10.9882L62.3399 10.8286C60.9965 8.8491 58.8512 7.58266 55.5186 7.75294C53.3003 7.85936 50.9363 8.91295 49.6345 10.7168L49.4262 8.01368H41.2406V12.5047L43.1256 12.5313C43.7088 12.5313 43.9587 12.7868 43.9587 13.3402V23.2641C43.9587 23.8388 43.6307 24.1528 43.0943 24.19L41.7144 24.2858V28.6811L52.7796 28.6864V24.2964L51.3997 24.2007C50.8686 24.1634 50.5353 23.8495 50.5353 23.2748L50.5458 16.5382C50.5458 15.4207 51.4518 13.1114 54.347 13.1114C56.6746 13.1114 57.1588 14.5587 57.1588 16.2508V23.2748C57.1588 23.8495 56.8308 24.1634 56.2945 24.1953L54.9146 24.3018V28.6917H65.9693V24.2964L64.5894 24.2007C64.0583 24.1634 63.7303 23.8495 63.7303 23.2748H63.7146L63.725 16.5382C63.725 15.4207 64.5374 13.1114 67.37 13.1114C69.6976 13.1114 70.286 14.5587 70.286 16.2508V23.2748C70.286 23.8495 69.958 24.1634 69.4217 24.1953L68.0418 24.3018V28.6917H79.1122V24.2964L77.7323 24.2007C77.1959 24.1634 76.8731 23.8495 76.8731 23.2748L76.8939 23.2641ZM37.6425 23.3067V8.01368H28.4414V12.5047H30.2119C30.7951 12.5047 31.045 12.7602 31.045 13.3136L31.0346 20.2843C31.0346 20.9654 30.5503 23.5302 27.2021 23.5994C24.9214 23.6419 24.4423 22.2691 24.4423 20.4599V8.01368H17.6731V20.8377C17.6731 24.0836 19.1206 29.1813 25.8847 28.995C28.103 28.9312 30.6493 27.7925 31.9667 26.1216L32.0187 28.6971H39.5691V24.2964L38.5016 24.2166C37.9705 24.1794 37.6425 23.8867 37.6425 23.312V23.3067ZM12.57 23.8175C10.3206 23.8708 9.88837 22.2372 9.86233 21.0505V12.8027H15.1111V8.01368H9.89358V0.90992H5.72786C5.66017 0.90992 5.5404 0.963131 5.51957 1.12277C5.28005 3.30444 4.25424 7.15697 0 8.68947V12.8027H3.23884V21.4922C3.23884 24.6849 5.15507 29.1015 11.2683 28.995C13.3303 28.9578 15.6214 28.0904 16.1317 27.3455L14.7779 23.344C14.2572 23.5941 13.2574 23.8069 12.5128 23.8229L12.57 23.8175Z" fill="white"/>
</svg>
